<svg width="51" height="172" viewBox="0 0 51 172" fill="none" xmlns="http://www.w3.org/2000/svg">
<g clip-path="url(#clip0_105_1684)">
<path d="M50.8563 111.569V155.774C50.8563 161.381 47.9952 166.33 43.6461 169.236L43.3186 115.214C45.7718 114.241 48.2882 113.04 50.8563 111.569Z" fill="#262626"/>
<path d="M50.8564 73.7732V111.569C48.2883 113.04 45.7719 114.241 43.3187 115.214L43.0774 75.8901C45.5823 75.318 48.1791 74.62 50.8564 73.7732Z" fill="#CFCECE"/>
<path d="M50.8564 16.2261V73.773C48.1791 74.6198 45.5823 75.3179 43.0774 75.89L42.6235 2.13403C47.5414 4.92041 50.8564 10.1899 50.8564 16.2261Z" fill="#262626"/>
<path d="M43.3187 115.214L43.6462 169.237C41.0551 170.982 37.9297 172 34.5631 172H16.4715C13.5529 172 10.8125 171.233 8.44545 169.889L8.53162 169.74L7.81348 115.529C15.4373 118.538 28.1744 121.233 43.3187 115.214Z" fill="#333333"/>
<path d="M43.0773 75.8901L43.3186 115.214C28.1743 121.233 15.4372 118.538 7.81334 115.529L7.29053 76.1419C14.5409 77.9499 26.9908 79.5519 43.0773 75.8901Z" fill="white"/>
<path d="M42.6235 2.13412L43.0774 75.8901C26.9909 79.5519 14.5411 77.9498 7.29063 76.1418L6.32544 3.53017C9.10611 1.32167 12.6337 0 16.4714 0H34.563C37.4988 0 40.2508 0.772404 42.6235 2.13412Z" fill="#333333"/>
<path d="M7.81346 115.529L8.53161 169.74L8.44543 169.889C3.50457 167.114 0.172363 161.827 0.172363 155.774V111.569C0.172363 111.569 2.95303 113.612 7.81346 115.529Z" fill="#3F3F3F"/>
<path d="M7.29065 76.1419L7.81346 115.529C2.95303 113.612 0.172363 111.569 0.172363 111.569V73.7732C0.172363 73.7732 2.67726 74.9976 7.29065 76.1419Z" fill="#CFCECE"/>
<path d="M6.32546 3.53027L7.29065 76.1419C2.67726 74.9976 0.172363 73.7732 0.172363 73.7732V16.2263C0.172363 11.0827 2.57385 6.49974 6.32546 3.53027Z" fill="#3F3F3F"/>
<path d="M43.0774 75.8901L43.3187 115.214" stroke="#CFCECE" stroke-miterlimit="10"/>
<path d="M7.29053 76.1418L7.81334 115.529" stroke="#CFCECE" stroke-miterlimit="10"/>
<path d="M0.172363 111.569C0.172363 111.569 2.95303 113.612 7.81346 115.529C15.4373 118.538 28.1744 121.233 43.3187 115.214C45.7719 114.241 48.2883 113.04 50.8564 111.569" stroke="#CFCECE" stroke-miterlimit="10"/>
<path d="M0.172363 73.7732C0.172363 73.7732 2.67726 74.9976 7.29065 76.1419C14.5411 77.9499 26.9909 79.5519 43.0774 75.8901C45.5823 75.318 48.1791 74.62 50.8564 73.7732" stroke="#CFCECE" stroke-miterlimit="10"/>
<path d="M38.7055 57.7129C42.6558 57.7129 45.8582 54.5237 45.8582 50.5896C45.8582 46.6555 42.6558 43.4663 38.7055 43.4663C34.7551 43.4663 31.5527 46.6555 31.5527 50.5896C31.5527 54.5237 34.7551 57.7129 38.7055 57.7129Z" fill="#1D1D1B" stroke="#1D1D1B" stroke-miterlimit="10"/>
<path d="M12.3293 57.4841C16.2796 57.4841 19.482 54.2949 19.482 50.3608C19.482 46.4267 16.2796 43.2375 12.3293 43.2375C8.37891 43.2375 5.17651 46.4267 5.17651 50.3608C5.17651 54.2949 8.37891 57.4841 12.3293 57.4841Z" fill="#1D1D1B" stroke="#1D1D1B" stroke-miterlimit="10"/>
<path d="M36.505 51.4994C37.6409 51.4994 38.5618 50.5824 38.5618 49.4511C38.5618 48.3199 37.6409 47.4028 36.505 47.4028C35.3691 47.4028 34.4482 48.3199 34.4482 49.4511C34.4482 50.5824 35.3691 51.4994 36.505 51.4994Z" fill="white"/>
<path d="M41.3023 54.4001C41.9655 54.4001 42.503 53.8648 42.503 53.2043C42.503 52.5439 41.9655 52.0085 41.3023 52.0085C40.6392 52.0085 40.1016 52.5439 40.1016 53.2043C40.1016 53.8648 40.6392 54.4001 41.3023 54.4001Z" fill="white"/>
<path d="M14.5297 51.4023C15.6656 51.4023 16.5865 50.4852 16.5865 49.354C16.5865 48.2227 15.6656 47.3057 14.5297 47.3057C13.3938 47.3057 12.4729 48.2227 12.4729 49.354C12.4729 50.4852 13.3938 51.4023 14.5297 51.4023Z" fill="white"/>
<path d="M9.73248 54.3086C10.3956 54.3086 10.9332 53.7732 10.9332 53.1128C10.9332 52.4524 10.3956 51.917 9.73248 51.917C9.06933 51.917 8.53174 52.4524 8.53174 53.1128C8.53174 53.7732 9.06933 54.3086 9.73248 54.3086Z" fill="white"/>
<path d="M19.4819 60.4192C19.4819 60.4192 25.3248 73.7732 31.5583 60.4192H19.4819Z" fill="#1D1D1B"/>
<path d="M41.1915 59.5884C44.6383 59.5884 47.4324 58.5301 47.4324 57.2245C47.4324 55.919 44.6383 54.8606 41.1915 54.8606C37.7448 54.8606 34.9507 55.919 34.9507 57.2245C34.9507 58.5301 37.7448 59.5884 41.1915 59.5884Z" fill="#CE8EAB"/>
<path d="M10.2408 58.7278C13.6876 58.7278 16.4817 57.6695 16.4817 56.3639C16.4817 55.0584 13.6876 54 10.2408 54C6.79412 54 4 55.0584 4 56.3639C4 57.6695 6.79412 58.7278 10.2408 58.7278Z" fill="#CE8EAB"/>
</g>
<defs>
<clipPath id="clip0_105_1684">
<rect width="51" height="172" fill="white"/>
</clipPath>
</defs>
</svg>
