<svg width="50" height="168" viewBox="0 0 50 168" fill="none" xmlns="http://www.w3.org/2000/svg">
<g clip-path="url(#clip0_105_1643)">
<path d="M49.8591 108.975V152.151C49.8591 157.628 47.0541 162.462 42.7903 165.301L42.4692 112.535C44.8743 111.585 47.3414 110.411 49.8591 108.975Z" fill="#506D62"/>
<path d="M49.8591 72.0574V108.975C47.3414 110.411 44.8743 111.584 42.4692 112.535L42.2327 74.1251C44.6885 73.5663 47.2344 72.8845 49.8591 72.0574Z" fill="#CFCECE"/>
<path d="M49.8593 15.8488V72.0575C47.2345 72.8846 44.6886 73.5663 42.2328 74.1252L41.7878 2.08447C46.6093 4.80605 49.8593 9.95301 49.8593 15.8488Z" fill="#506D62"/>
<path d="M42.4692 112.535L42.7903 165.301C40.25 167.005 37.1859 168 33.8852 168H16.1484C13.2871 168 10.6003 167.251 8.27973 165.938L8.36422 165.793L7.66016 112.842C15.1345 115.782 27.6219 118.414 42.4692 112.535Z" fill="#7DAA9C"/>
<path d="M42.2328 74.1252L42.4693 112.535C27.622 118.414 15.1346 115.782 7.66027 112.842L7.14771 74.3711C14.256 76.1371 26.4617 77.7019 42.2328 74.1252Z" fill="white"/>
<path d="M41.7878 2.08449L42.2327 74.1252C26.4616 77.7018 14.2559 76.1371 7.14768 74.3711L6.20142 3.44807C8.92756 1.29093 12.3859 0 16.1485 0H33.8853C36.7635 0 39.4615 0.754441 41.7878 2.08449Z" fill="#7DAA9C"/>
<path d="M7.66021 112.842L8.36428 165.793L8.27979 165.938C3.43581 163.228 0.168945 158.064 0.168945 152.151V108.975C0.168945 108.975 2.89509 110.97 7.66021 112.842Z" fill="#93BAAA"/>
<path d="M7.14765 74.371L7.66022 112.842C2.89509 110.97 0.168945 108.975 0.168945 108.975V72.0574C0.168945 72.0574 2.62473 73.2533 7.14765 74.371Z" fill="#CFCECE"/>
<path d="M6.20139 3.448L7.14765 74.371C2.62473 73.2533 0.168945 72.0574 0.168945 72.0574V15.8488C0.168945 10.8248 2.52334 6.3484 6.20139 3.448Z" fill="#93BAAA"/>
<path d="M42.2327 74.1252L42.4692 112.535" stroke="#CFCECE" stroke-miterlimit="10"/>
<path d="M41.7878 2.08447L42.2328 74.1252" stroke="#506D62" stroke-miterlimit="10"/>
<path d="M7.14771 74.3711L7.66027 112.842" stroke="#CFCECE" stroke-miterlimit="10"/>
<path d="M0.168945 108.975C0.168945 108.975 2.89509 110.97 7.66021 112.842C15.1346 115.782 27.6219 118.414 42.4693 112.535C44.8744 111.585 47.3414 110.411 49.8592 108.975" stroke="#CFCECE" stroke-miterlimit="10"/>
<path d="M0.168945 72.0574C0.168945 72.0574 2.62473 73.2533 7.14765 74.371C14.2559 76.1369 26.4616 77.7017 42.2327 74.1251C44.6885 73.5663 47.2344 72.8845 49.8592 72.0574" stroke="#CFCECE" stroke-miterlimit="10"/>
<path d="M37.9463 56.3708C41.8192 56.3708 44.9588 53.2558 44.9588 49.4132C44.9588 45.5706 41.8192 42.4556 37.9463 42.4556C34.0734 42.4556 30.9338 45.5706 30.9338 49.4132C30.9338 53.2558 34.0734 56.3708 37.9463 56.3708Z" fill="#1D1D1B" stroke="#1D1D1B" stroke-miterlimit="10"/>
<path d="M12.0875 56.1472C15.9604 56.1472 19.1 53.0321 19.1 49.1896C19.1 45.347 15.9604 42.2319 12.0875 42.2319C8.21456 42.2319 5.07495 45.347 5.07495 49.1896C5.07495 53.0321 8.21456 56.1472 12.0875 56.1472Z" fill="#1D1D1B" stroke="#1D1D1B" stroke-miterlimit="10"/>
<path d="M35.7892 50.3016C36.9028 50.3016 37.8056 49.4059 37.8056 48.301C37.8056 47.196 36.9028 46.3003 35.7892 46.3003C34.6755 46.3003 33.7727 47.196 33.7727 48.301C33.7727 49.4059 34.6755 50.3016 35.7892 50.3016Z" fill="white"/>
<path d="M40.4924 53.135C41.1425 53.135 41.6696 52.6121 41.6696 51.9671C41.6696 51.322 41.1425 50.7991 40.4924 50.7991C39.8422 50.7991 39.3152 51.322 39.3152 51.9671C39.3152 52.6121 39.8422 53.135 40.4924 53.135Z" fill="white"/>
<path d="M14.2447 50.2067C15.3584 50.2067 16.2612 49.3109 16.2612 48.206C16.2612 47.1011 15.3584 46.2053 14.2447 46.2053C13.1311 46.2053 12.2283 47.1011 12.2283 48.206C12.2283 49.3109 13.1311 50.2067 14.2447 50.2067Z" fill="white"/>
<path d="M9.54146 53.0457C10.1916 53.0457 10.7187 52.5228 10.7187 51.8777C10.7187 51.2326 10.1916 50.7097 9.54146 50.7097C8.89131 50.7097 8.36426 51.2326 8.36426 51.8777C8.36426 52.5228 8.89131 53.0457 9.54146 53.0457Z" fill="white"/>
<path d="M19.0999 59.0142C19.0999 59.0142 24.8281 72.0576 30.9394 59.0142H19.0999Z" fill="#1D1D1B"/>
<path d="M40.4923 59.5953C43.939 59.5953 46.7332 58.5369 46.7332 57.2313C46.7332 55.9258 43.939 54.8674 40.4923 54.8674C37.0456 54.8674 34.2515 55.9258 34.2515 57.2313C34.2515 58.5369 37.0456 59.5953 40.4923 59.5953Z" fill="#CE8EAB"/>
<path d="M9.54163 58.7347C12.9884 58.7347 15.7825 57.6763 15.7825 56.3708C15.7825 55.0652 12.9884 54.0068 9.54163 54.0068C6.0949 54.0068 3.30078 55.0652 3.30078 56.3708C3.30078 57.6763 6.0949 58.7347 9.54163 58.7347Z" fill="#CE8EAB"/>
<path d="M39.76 43.0142C42.1088 44.5175 44.9814 42.9918 46.5867 41.0638L47.3471 40.1194L47.5611 40.2535C46.3557 42.4945 44.4519 44.7019 41.7089 44.9366C40.7288 45.0205 39.7826 44.8807 38.8757 44.4504L39.76 43.0254V43.0142Z" fill="#1D1D1B"/>
<path d="M39.76 46.0935C42.1088 47.5968 44.9814 46.0712 46.5867 44.1432L47.3471 43.1987L47.5611 43.3329C46.3557 45.5738 44.4519 47.7813 41.7089 48.016C40.7288 48.0998 39.7826 47.9601 38.8757 47.5298L39.76 46.1047V46.0935Z" fill="#1D1D1B"/>
<path d="M9.58649 44.9534C5.82959 46.6523 2.54019 43.9754 0.901123 40.7621L1.11516 40.6279C2.77676 42.9639 5.84649 45.2775 8.70218 43.5283L9.58649 44.9534Z" fill="#1D1D1B"/>
<path d="M9.58649 48.0327C5.82959 49.7316 2.54019 47.0548 0.901123 43.8414L1.11516 43.7073C2.77676 46.0432 5.84649 48.3569 8.70218 46.6077L9.58649 48.0327Z" fill="#1D1D1B"/>
</g>
<defs>
<clipPath id="clip0_105_1643">
<rect width="50" height="168" fill="white"/>
</clipPath>
</defs>
</svg>
