<svg width="25" height="25" viewBox="0 0 25 25" fill="none" xmlns="http://www.w3.org/2000/svg">
<path d="M18.8591 3.85522L16.4245 6.28984L16.6508 6.5249C16.4896 6.65513 16.3264 6.78218 16.168 6.89497C15.9123 7.07759 15.6669 7.22407 15.5005 7.29277C15.4898 7.29756 15.4446 7.31025 15.3548 7.30986C15.2115 7.31143 14.9717 7.2749 14.6779 7.23008C14.3829 7.1856 14.0299 7.13721 13.6321 7.13677C13.2851 7.1356 12.9023 7.17769 12.4994 7.28843C12.0972 7.17808 11.7152 7.13677 11.369 7.13721C10.9708 7.13721 10.6179 7.18564 10.3229 7.23052C10.0291 7.27534 9.78965 7.31191 9.64634 7.3103C9.5562 7.31108 9.51133 7.29761 9.5022 7.29321C9.32471 7.22056 9.05708 7.05854 8.78159 6.85806C8.63906 6.75444 8.49375 6.64087 8.34961 6.52417L8.57554 6.28989L6.14092 3.85527L0 10.2157L2.43462 12.6503L3.14727 11.9122L4.72031 13.2851C4.76436 13.5483 4.84736 13.7969 4.94307 14.0328C5.00537 14.1829 5.07368 14.3273 5.1436 14.4631C4.9915 14.7149 4.90855 15.0023 4.90933 15.2937C4.90894 15.5828 4.98833 15.8782 5.15151 16.1406C5.39966 16.5396 5.79712 16.7906 6.22627 16.87C6.22871 17.1539 6.30732 17.4433 6.46729 17.7006C6.77104 18.189 7.29673 18.4597 7.83272 18.4589C7.85337 18.4589 7.87441 18.4557 7.89502 18.4549C7.92202 18.682 7.99668 18.9083 8.12451 19.114C8.42827 19.6023 8.9543 19.8731 9.4895 19.8723C9.54272 19.8723 9.59556 19.8667 9.64912 19.8616C9.67451 20.0661 9.74243 20.2701 9.85718 20.4543C10.1339 20.8991 10.6127 21.146 11.0999 21.1448C11.3627 21.1452 11.6319 21.0737 11.8709 20.9252L12.6007 20.4711C12.7444 20.564 12.8953 20.6458 13.0537 20.7125C13.3487 20.8367 13.6675 20.9129 13.999 20.9133C14.3627 20.9149 14.7466 20.8153 15.077 20.583C15.2921 20.433 15.4744 20.2272 15.6236 19.9847C15.6467 19.9855 15.6653 19.9895 15.6892 19.9899C15.8404 19.9899 16.0064 19.9672 16.1708 19.916C16.3363 19.8656 16.5007 19.7901 16.6762 19.6897C17.0947 19.4539 17.3456 19.1069 17.4675 18.8095C17.4945 18.7444 17.514 18.6833 17.5314 18.6241C17.6327 18.592 17.7296 18.5526 17.8173 18.5019C18.1409 18.3156 18.3517 18.0326 18.4815 17.7483C18.6118 17.4612 18.6689 17.163 18.6697 16.8764C18.6697 16.8482 18.6662 16.8208 18.6649 16.793C18.8766 16.7065 19.0667 16.5862 19.2287 16.4444C19.3947 16.2991 19.534 16.13 19.6376 15.937C19.7409 15.7449 19.81 15.5249 19.8104 15.2839C19.8108 15.1271 19.7786 14.9619 19.7084 14.8071C19.6857 14.7579 19.6536 14.7126 19.6242 14.6669C19.7477 14.4458 19.8735 14.1965 19.9767 13.9273C20.0541 13.7236 20.1193 13.51 20.1566 13.2856L21.7967 11.8543L22.5654 12.6504L25 10.2157L18.8591 3.85522ZM6.77461 15.6459L6.74639 15.6638C6.67295 15.7091 6.5959 15.7293 6.5165 15.7297C6.36919 15.729 6.22783 15.6571 6.14487 15.5233C6.09961 15.4499 6.07896 15.3724 6.07896 15.2938C6.07974 15.1457 6.15122 15.0051 6.28462 14.9222L7.24902 14.323C7.32246 14.2774 7.39951 14.2576 7.47808 14.2567C7.62617 14.2583 7.76675 14.329 7.85015 14.4636C7.89541 14.5366 7.91563 14.614 7.91606 14.6927C7.91523 14.7959 7.87832 14.8944 7.81167 14.9738L6.9834 15.4883C6.90801 15.5352 6.83931 15.5896 6.77461 15.6459ZM8.06216 17.2233C7.98872 17.2686 7.91167 17.2893 7.83267 17.2893C7.68496 17.2885 7.54365 17.217 7.46064 17.0832C7.41533 17.0098 7.39512 16.9319 7.39473 16.8533C7.39507 16.7509 7.43203 16.6524 7.49834 16.5738L8.32695 16.0581C8.402 16.0116 8.46992 15.9577 8.53462 15.9013L8.56479 15.883C8.63823 15.8374 8.71567 15.8171 8.7939 15.8171C8.94238 15.8179 9.08252 15.8894 9.16587 16.0235C9.21113 16.097 9.2314 16.1736 9.23179 16.2526C9.23101 16.3999 9.15996 16.5413 9.02495 16.625L8.06216 17.2233ZM10.6822 18.0381L9.71899 18.6368C9.64595 18.6821 9.5689 18.7027 9.4895 18.7027C9.34219 18.702 9.20083 18.6305 9.11787 18.4967C9.07261 18.4229 9.05239 18.3458 9.05195 18.2668C9.05317 18.1187 9.12422 17.9786 9.25762 17.8952L10.222 17.296C10.2955 17.2504 10.3725 17.2306 10.4511 17.2306C10.5992 17.2309 10.7397 17.3024 10.8231 17.4366C10.8684 17.5101 10.8886 17.5871 10.8891 17.6661C10.8882 17.8133 10.8172 17.9539 10.6822 18.0381ZM12.1754 19.0147C12.206 19.0636 12.2191 19.1144 12.2195 19.1676C12.2187 19.2665 12.1714 19.3605 12.0805 19.4173L11.2535 19.9311C11.2042 19.962 11.1534 19.9751 11.0998 19.9751C11.0006 19.9747 10.9065 19.9267 10.8505 19.837C10.8199 19.7873 10.8068 19.7365 10.8064 19.6833C10.8076 19.5836 10.8548 19.4903 10.9441 19.4348L11.7724 18.9202C11.8228 18.8889 11.8732 18.8757 11.926 18.8757C12.0257 18.8765 12.1195 18.9246 12.1754 19.0147ZM18.607 15.3839C18.5645 15.4661 18.4676 15.5732 18.345 15.6483C18.2223 15.7242 18.0797 15.7686 17.9432 15.7682C17.8947 15.7682 17.8479 15.7765 17.8022 15.7884C17.7188 15.7702 17.6354 15.7448 17.5533 15.7122C17.2988 15.6129 17.061 15.4521 16.893 15.3164C16.8088 15.2485 16.7421 15.1874 16.6977 15.1449L16.6484 15.096L16.6377 15.0849L16.6361 15.0833C16.4725 14.9055 16.195 14.8936 16.0167 15.0571C15.8385 15.2208 15.8262 15.4979 15.9902 15.6773C16.0048 15.6924 16.2252 15.933 16.5861 16.1808C16.7672 16.3046 16.9835 16.4309 17.2325 16.5286C17.29 16.5512 17.35 16.5722 17.4116 16.5913C17.4287 16.6298 17.4505 16.6664 17.4763 16.7009L17.4751 16.7017C17.4783 16.7041 17.5021 16.7795 17.5001 16.8764C17.5029 17.038 17.4441 17.2496 17.3596 17.3663C17.3183 17.4259 17.2762 17.4636 17.2354 17.487C17.1937 17.5101 17.1516 17.5251 17.0726 17.5263L17.0443 17.5259C17.0276 17.5251 17.0118 17.5279 16.9955 17.5287C16.9947 17.5287 16.9943 17.5287 16.9943 17.5287C16.614 17.5303 16.2599 17.3671 15.9986 17.1885C15.8684 17.1003 15.7639 17.0106 15.6937 16.9447C15.6591 16.9122 15.6325 16.8852 15.6162 16.8685L15.5992 16.8502L15.5964 16.8467C15.438 16.6648 15.1617 16.645 14.9786 16.8034C14.7952 16.9622 14.7753 17.239 14.9341 17.4224C14.9512 17.4414 15.1533 17.6745 15.5055 17.9143C15.7374 18.0711 16.0399 18.2335 16.3992 18.3272C16.3953 18.3375 16.3929 18.3479 16.3881 18.3582C16.342 18.4622 16.2761 18.5694 16.0967 18.6742C15.9755 18.7434 15.889 18.7794 15.8283 18.7977C15.7671 18.816 15.733 18.8196 15.6893 18.8199C15.6326 18.8208 15.5472 18.808 15.405 18.779C15.3792 18.7735 15.3535 18.7719 15.3276 18.7703C15.3181 18.7663 15.309 18.7627 15.2986 18.7576C15.1533 18.6893 14.9762 18.5658 14.8456 18.4606C14.7801 18.4086 14.7245 18.3609 14.6864 18.3272L14.6435 18.2883L14.6336 18.2788L14.6316 18.2772C14.4565 18.1097 14.1786 18.116 14.011 18.2911C13.8439 18.4662 13.8502 18.7441 14.0253 18.9112C14.0345 18.9195 14.2191 19.0967 14.4779 19.2825C14.524 19.315 14.5748 19.348 14.6256 19.3805C14.5541 19.4945 14.4795 19.5727 14.4065 19.6247C14.2897 19.7049 14.1627 19.743 13.9991 19.7438C13.8526 19.7442 13.6803 19.7081 13.508 19.6351C13.4508 19.6112 13.3949 19.5775 13.3385 19.5461C13.3714 19.423 13.3897 19.2956 13.3893 19.1677C13.3897 18.9045 13.3174 18.6353 13.1689 18.3967C12.9168 17.9913 12.4964 17.7531 12.0561 17.7142C12.0561 17.6982 12.0588 17.6824 12.0588 17.6661C12.0592 17.3775 11.9798 17.0813 11.817 16.8192C11.5129 16.3293 10.9864 16.0593 10.4512 16.0605C10.4306 16.0605 10.4095 16.0641 10.3889 16.0649C10.3619 15.8374 10.2872 15.6119 10.1594 15.4062C9.91128 15.0064 9.51382 14.7555 9.08462 14.6769C9.08188 14.393 9.00366 14.1035 8.8436 13.8462C8.53989 13.3575 8.01338 13.0863 7.47817 13.0871C7.18872 13.0871 6.89375 13.1666 6.6313 13.3293L6.06792 13.6795C6.05439 13.6485 6.03735 13.6184 6.02505 13.5874C5.927 13.3527 5.86543 13.1212 5.85869 12.9617L5.84561 12.7147L3.96094 11.0694L7.53418 7.36865C7.71685 7.51836 7.90425 7.66685 8.09644 7.80581C8.41484 8.0353 8.73047 8.23779 9.05288 8.37358C9.25977 8.45894 9.46143 8.47998 9.64648 8.48037C9.94268 8.4792 10.2142 8.42837 10.4973 8.38706C10.5156 8.38389 10.5346 8.38232 10.5533 8.37949C10.1642 8.71338 9.82471 9.07471 9.53765 9.41104C9.29585 9.69492 9.0918 9.9625 8.93018 10.1809C8.77061 10.398 8.64751 10.5731 8.59351 10.6422C8.32749 10.9884 8.21318 11.4025 8.21079 11.8174C8.21196 12.2034 8.3144 12.6051 8.58042 12.9446C8.71304 13.1125 8.88931 13.2595 9.09971 13.3595C9.30976 13.4604 9.55034 13.512 9.80088 13.512C10.1118 13.5111 10.4377 13.4357 10.7828 13.2908C11.8659 12.8326 12.9823 12.5273 13.8224 12.3391C14.2425 12.2454 14.5938 12.1803 14.8388 12.1394C14.8849 12.1318 14.9234 12.1255 14.9615 12.1192L18.6369 15.2875L18.6384 15.2883L18.6396 15.2903C18.6392 15.3017 18.6335 15.3347 18.607 15.3839ZM19.0322 12.7146L19.0195 12.9616C19.0127 13.1029 18.9647 13.3022 18.8841 13.5087C18.8432 13.6167 18.7932 13.7255 18.7408 13.8327L15.522 11.0582C15.397 10.9502 15.2302 10.9002 15.0663 10.9209C15.0377 10.9264 12.6769 11.2226 10.3276 12.2128C10.0938 12.3117 9.91831 12.3422 9.80078 12.3415C9.70513 12.3415 9.64673 12.3244 9.60347 12.3037C9.54072 12.2731 9.49585 12.2298 9.45142 12.1469C9.40894 12.0651 9.37993 11.9444 9.38037 11.8174C9.37798 11.6348 9.44312 11.4489 9.51611 11.3608C9.60708 11.2433 9.71821 11.0829 9.87148 10.8756C10.0989 10.5675 10.4079 10.1689 10.7763 9.78101C11.1439 9.39311 11.5715 9.01753 12.0198 8.75386C12.6261 8.39775 13.1426 8.3084 13.6322 8.30679C13.9335 8.3064 14.2225 8.34409 14.5044 8.38657C14.7871 8.42827 15.0595 8.47827 15.3549 8.47988C15.5395 8.47949 15.74 8.45845 15.9461 8.37427L15.9488 8.37349C16.2712 8.2377 16.5869 8.0352 16.9053 7.80571C17.0963 7.66753 17.2845 7.51826 17.4663 7.36899L20.9836 11.0118L19.0322 12.7146Z" fill="#5C6010"/>
</svg>
