<svg width="107" height="200" viewBox="0 0 107 200" fill="none" xmlns="http://www.w3.org/2000/svg">
<g clip-path="url(#clip0_106_1812)">
<path d="M0 87.6099H107V176.545C107 189.486 96.7123 199.994 84.0429 199.994H22.9571C10.2877 199.994 0 189.486 0 176.545V87.6099Z" fill="#EFA3AC"/>
<path d="M26.2093 0H80.7907C95.2559 0 107 11.9956 107 26.7707V87.6101H0V26.7707C0 11.9956 11.7441 0 26.2093 0Z" fill="#88B8C0"/>
<path d="M0 87.6099L0.301131 180.337C0.301131 180.337 1.73013 194.983 19.6392 200V87.6099H0Z" fill="#99646D"/>
<path d="M19.6392 87.6102V0.850098C19.6392 0.850098 4.77977 4.04334 0.766515 20.3283L0.175203 23.6782L0 87.6102H19.6392Z" fill="#6C8B8E"/>
<path d="M79.6027 77.5384C87.5553 77.5384 94.0022 70.9535 94.0022 62.8305C94.0022 54.7075 87.5553 48.1226 79.6027 48.1226C71.65 48.1226 65.2031 54.7075 65.2031 62.8305C65.2031 70.9535 71.65 77.5384 79.6027 77.5384Z" fill="black"/>
<path d="M29.4562 77.5384C37.4088 77.5384 43.8557 70.9535 43.8557 62.8305C43.8557 54.7075 37.4088 48.1226 29.4562 48.1226C21.5035 48.1226 15.0566 54.7075 15.0566 62.8305C15.0566 70.9535 21.5035 77.5384 29.4562 77.5384Z" fill="black"/>
<path d="M46.407 74.8037C46.407 74.8037 53.771 91.62 62.6516 74.8037H46.407Z" fill="black"/>
<path d="M77.0019 64.1559C79.0944 64.1559 80.7907 62.4232 80.7907 60.2859C80.7907 58.1486 79.0944 56.416 77.0019 56.416C74.9094 56.416 73.2131 58.1486 73.2131 60.2859C73.2131 62.4232 74.9094 64.1559 77.0019 64.1559Z" fill="white"/>
<path d="M84.5247 70.5759C85.9308 70.5759 87.0706 69.4116 87.0706 67.9755C87.0706 66.5393 85.9308 65.375 84.5247 65.375C83.1186 65.375 81.9788 66.5393 81.9788 67.9755C81.9788 69.4116 83.1186 70.5759 84.5247 70.5759Z" fill="white"/>
<path d="M33.8418 63.4962C35.9342 63.4962 37.6305 61.7636 37.6305 59.6263C37.6305 57.489 35.9342 55.7563 33.8418 55.7563C31.7493 55.7563 30.053 57.489 30.053 59.6263C30.053 61.7636 31.7493 63.4962 33.8418 63.4962Z" fill="white"/>
<path d="M23.7839 69.9103C25.1657 69.9103 26.286 68.766 26.286 67.3545C26.286 65.9431 25.1657 64.7988 23.7839 64.7988C22.402 64.7988 21.2817 65.9431 21.2817 67.3545C21.2817 68.766 22.402 69.9103 23.7839 69.9103Z" fill="white"/>
<path d="M84.8094 85.3106C90.845 85.3106 95.7377 83.3003 95.7377 80.8206C95.7377 78.3408 90.845 76.3306 84.8094 76.3306C78.7739 76.3306 73.8811 78.3408 73.8811 80.8206C73.8811 83.3003 78.7739 85.3106 84.8094 85.3106Z" fill="#EFA3AC"/>
<path d="M24.5724 84.5274C30.6079 84.5274 35.5007 82.5171 35.5007 80.0374C35.5007 77.5576 30.6079 75.5474 24.5724 75.5474C18.5368 75.5474 13.644 77.5576 13.644 80.0374C13.644 82.5171 18.5368 84.5274 24.5724 84.5274Z" fill="#EFA3AC"/>
</g>
<defs>
<clipPath id="clip0_106_1812">
<rect width="107" height="200" fill="white"/>
</clipPath>
</defs>
</svg>
