<svg width="75" height="191" viewBox="0 0 75 191" fill="none" xmlns="http://www.w3.org/2000/svg">
<path d="M59.601 189.051L73.8926 161.957L35.3167 170.346L59.601 189.051Z" fill="#CCAE9B" stroke="#CCAE9B" stroke-miterlimit="10"/>
<path d="M60.5559 187.301L73.6136 162.549L65.5267 163.612L60.5559 187.301Z" fill="#9B8273" stroke="#9B8273" stroke-miterlimit="10"/>
<path d="M59.6087 189.09L63.9626 180.729L52.1663 183.295L59.6087 189.09Z" fill="#010101" stroke="#010101" stroke-miterlimit="10"/>
<path d="M3.04761 24.8831L16.3057 21.999L47.5806 165.386C48.3783 169.039 46.056 172.653 42.3937 173.45C38.7353 174.246 35.1163 171.927 34.3186 168.27L3.04761 24.8831Z" fill="#507FC0" stroke="#507FC0" stroke-miterlimit="10"/>
<path d="M16.3018 22.003L29.5599 19.1189L60.8348 162.506C61.6325 166.159 59.3101 169.773 55.6479 170.57C51.9895 171.366 48.3704 169.047 47.5727 165.39L16.3018 22.003Z" fill="#3D6FB5" stroke="#3D6FB5" stroke-miterlimit="10"/>
<path d="M29.5601 19.1189L42.8182 16.2349L74.0931 159.622C74.8908 163.275 72.5685 166.889 68.9062 167.686C65.2478 168.482 61.6287 166.163 60.831 162.506L29.5601 19.1189Z" fill="#2D59A1" stroke="#2D59A1" stroke-miterlimit="10"/>
<path d="M5.18943 6.75477L33.3129 0.637411C36.5272 -0.0610425 39.6983 1.97154 40.4017 5.18128L42.8105 16.2349L3.04786 24.8832L0.639072 13.8296C-0.060379 10.6198 1.9751 7.45322 5.18943 6.75084V6.75477Z" fill="#262626" stroke="#262626" stroke-miterlimit="10"/>
<path d="M25.8896 2.25406L33.3243 0.637411C36.5386 -0.0610425 39.7097 1.97154 40.4131 5.18128L42.8219 16.2349L39.7451 16.902C39.6429 15.6424 39.0653 10.3412 34.5621 6.24858C31.1591 3.16048 27.375 2.44633 25.8896 2.25013V2.25406Z" fill="#141414" stroke="#141414" stroke-miterlimit="10"/>
<path d="M5.1066 24.785L6.72162 24.4358L36.6998 165.551C37.466 169.145 37.301 172.229 36.3343 172.433C35.3677 172.645 33.9295 169.726 33.1632 166.132L2.81177 25.2637L5.11053 24.7772V24.785H5.1066Z" fill="#A5C9EC"/>
<path d="M12.6238 5.13794L5.18915 6.75459C1.97482 7.45304 -0.0645941 10.6235 0.638786 13.8333L3.04757 24.8869L6.33656 24.1728C5.9554 22.0696 5.66069 16.9528 8.13627 11.4947C9.48016 8.52427 11.2877 6.43675 12.6238 5.14187V5.13794Z" fill="#939393" stroke="#939393" stroke-miterlimit="10"/>
<path d="M48.0615 63.5954C48.7927 60.2213 46.6463 56.8942 43.2673 56.1641C39.8884 55.4339 36.5565 57.5773 35.8254 60.9514C35.0942 64.3255 37.2406 67.6527 40.6196 68.3828C43.9985 69.1129 47.3304 66.9695 48.0615 63.5954Z" fill="#010101"/>
<path d="M31.0236 67.7703C32.0223 64.4652 30.1487 60.9776 26.839 59.9803C23.5292 58.9831 20.0366 60.854 19.0379 64.159C18.0393 67.4641 19.9128 70.9517 23.2226 71.9489C26.5323 72.9462 30.025 71.0753 31.0236 67.7703Z" fill="#010101"/>
<path d="M31.9609 73.4686C31.9609 73.4686 36.7117 82.9135 38.3346 72.0835L31.9609 73.4686Z" fill="#010101"/>
<path d="M46.9164 70.2187C49.3613 69.6869 51.1463 68.3528 50.9033 67.239C50.6604 66.1253 48.4814 65.6535 46.0365 66.1854C43.5916 66.7173 41.8066 68.0513 42.0496 69.1651C42.2926 70.2789 44.4715 70.7506 46.9164 70.2187Z" fill="#CE8EAC"/>
<path d="M22.5153 75.5312C24.9602 74.9994 26.7452 73.6653 26.5022 72.5515C26.2592 71.4378 24.0803 70.966 21.6354 71.4979C19.1905 72.0298 17.4055 73.3638 17.6485 74.4776C17.8914 75.5914 20.0704 76.0631 22.5153 75.5312Z" fill="#CE8EAC"/>
<path d="M39.8553 63.1333C40.7277 63.1333 41.435 62.4271 41.435 61.5559C41.435 60.6848 40.7277 59.9785 39.8553 59.9785C38.9829 59.9785 38.2756 60.6848 38.2756 61.5559C38.2756 62.4271 38.9829 63.1333 39.8553 63.1333Z" fill="white"/>
<path d="M45.0738 64.577C45.5166 64.577 45.8755 64.2186 45.8755 63.7766C45.8755 63.3345 45.5166 62.9761 45.0738 62.9761C44.6311 62.9761 44.2722 63.3345 44.2722 63.7766C44.2722 64.2186 44.6311 64.577 45.0738 64.577Z" fill="white"/>
<path d="M26.7386 65.9192C27.611 65.9192 28.3183 65.213 28.3183 64.3418C28.3183 63.4706 27.611 62.7644 26.7386 62.7644C25.8662 62.7644 25.1589 63.4706 25.1589 64.3418C25.1589 65.213 25.8662 65.9192 26.7386 65.9192Z" fill="white"/>
<path d="M22.9191 69.329C23.3618 69.329 23.7207 68.9706 23.7207 68.5285C23.7207 68.0864 23.3618 67.728 22.9191 67.728C22.4763 67.728 22.1174 68.0864 22.1174 68.5285C22.1174 68.9706 22.4763 69.329 22.9191 69.329Z" fill="white"/>
<path d="M62.7877 31.2791L66.9805 28.2341L65.3812 33.1586L69.574 36.2036H64.3909L62.7877 41.1281L61.1845 36.2036H56.0015L60.1942 33.1586L58.591 28.2341L62.7877 31.2791Z" fill="#E1BB69" stroke="#E1BB69" stroke-width="3" stroke-miterlimit="10"/>
<path d="M59.4358 54.6615L61.5578 53.1233L60.7444 55.615L62.8663 57.1531H60.2453L59.4358 59.6448L58.6224 57.1531H56.0015L58.1234 55.615L57.31 53.1233L59.4358 54.6615Z" fill="#E1BB69" stroke="#E1BB69" stroke-width="3" stroke-miterlimit="10"/>
</svg>
