<svg width="81" height="25" viewBox="0 0 81 25" fill="none" xmlns="http://www.w3.org/2000/svg">
<path d="M6.88809 1.248C7.65609 1.248 8.41609 1.44 9.16809 1.824C9.93609 2.208 10.3201 2.64 10.3201 3.12001C10.3201 3.85601 10.0161 4.22401 9.40809 4.22401C9.18409 4.22401 8.79209 4.08001 8.23209 3.79201C7.67209 3.504 7.20009 3.36 6.81609 3.36C5.44009 3.36 4.28809 3.97601 3.36009 5.20801C2.44809 6.44001 1.99209 8.00801 1.99209 9.91201C1.99209 11.336 2.30409 12.584 2.92809 13.656C3.55209 14.728 4.28809 15.264 5.13609 15.264C6.00009 15.264 6.67209 14.984 7.15209 14.424C7.64809 13.848 7.89609 13.2 7.89609 12.48C7.89609 12.08 7.86409 11.752 7.80009 11.496C7.75209 11.224 7.61609 10.984 7.39209 10.776C7.16809 10.552 6.87209 10.44 6.50409 10.44C6.13609 10.44 5.78409 10.36 5.44809 10.2C5.12809 10.04 4.96809 9.82401 4.96809 9.55201C4.96809 9.28001 5.04809 9.02401 5.20809 8.78401C5.36809 8.54401 5.58409 8.40001 5.85609 8.35201C6.94409 8.35201 7.67209 8.46401 8.04009 8.68801C8.42409 8.91201 8.71209 9.09601 8.90409 9.24001C9.09609 9.38401 9.25609 9.62401 9.38409 9.96001C9.51209 10.296 9.60809 10.576 9.67209 10.8C9.75209 11.024 9.80809 11.384 9.84009 11.88C9.87209 12.712 9.88809 13.688 9.88809 14.808C9.88809 15.912 9.80809 16.592 9.64809 16.848C9.50409 17.056 9.26409 17.168 8.92809 17.184C8.59209 17.184 8.36009 17.112 8.23209 16.968C8.10409 16.824 8.02409 16.504 7.99209 16.008C7.60809 16.344 7.12009 16.632 6.52809 16.872C5.95209 17.096 5.44009 17.208 4.99209 17.208C3.58409 17.208 2.40009 16.464 1.44009 14.976C0.480092 13.472 9.18806e-05 11.664 9.18806e-05 9.55201C9.18806e-05 8.43201 0.184092 7.33601 0.552092 6.26401C0.920092 5.17601 1.41609 4.26401 2.04009 3.52801C3.35209 2.00801 4.96809 1.248 6.88809 1.248ZM18.8033 13.68L18.8273 16.152C18.8273 16.44 18.6913 16.704 18.4193 16.944C18.1633 17.184 17.9073 17.304 17.6513 17.304C17.2833 17.304 17.0513 17.016 16.9553 16.44C16.9393 16.312 16.8753 15.144 16.7633 12.936C16.6513 10.712 16.4353 8.96801 16.1153 7.70401C15.9713 7.09601 15.8993 6.73601 15.8993 6.62401C15.8993 6.09601 16.2193 5.83201 16.8593 5.83201C17.1313 5.83201 17.3473 5.93601 17.5073 6.14401C17.6673 6.35201 17.7633 6.56801 17.7953 6.79201C17.8433 7.00001 17.8833 7.28801 17.9153 7.65601C17.9473 8.02401 17.9713 8.25601 17.9873 8.35201C18.3233 7.55201 18.8273 6.95201 19.4993 6.55201C20.1713 6.15201 20.9073 5.95201 21.7073 5.95201C23.0193 5.95201 23.6753 6.28801 23.6753 6.96001C23.6753 7.29601 23.5553 7.56801 23.3153 7.77601C23.0913 7.96801 22.8273 8.06401 22.5233 8.06401C21.1633 8.06401 20.2033 8.49601 19.6433 9.36001C19.0833 10.224 18.8033 11.664 18.8033 13.68ZM35.9577 5.97601C36.6617 5.97601 37.0137 6.57601 37.0137 7.77601C37.0137 7.90401 37.0137 8.04001 37.0137 8.18401L36.9657 9.86401C36.9497 10.392 36.9417 10.912 36.9417 11.424L37.3017 16.848C37.3017 17.248 36.8937 17.448 36.0777 17.448C36.0297 17.448 35.9097 17.448 35.7177 17.448C35.5417 17.448 35.4137 17.376 35.3337 17.232C35.2697 17.088 35.2617 16.912 35.3097 16.704C35.3737 16.496 35.3577 16.264 35.2617 16.008C34.5257 16.792 33.5497 17.184 32.3337 17.184C30.0777 17.184 28.9497 15.44 28.9497 11.952C28.9497 10.016 29.3097 8.55201 30.0297 7.56001C30.7657 6.56801 31.8137 6.07201 33.1737 6.07201C33.8137 6.07201 34.4537 6.18401 35.0937 6.408C35.3017 6.12001 35.5897 5.97601 35.9577 5.97601ZM33.4617 8.16001C32.5497 8.16001 31.8697 8.42401 31.4217 8.95201C30.9737 9.48001 30.7497 10.448 30.7497 11.856C30.7497 14.224 31.3897 15.408 32.6697 15.408C33.0057 15.408 33.3737 15.256 33.7737 14.952C34.1897 14.648 34.4777 14.304 34.6377 13.92C34.9417 13.056 35.0937 12.112 35.0937 11.088C35.0937 10.064 34.9657 9.32001 34.7097 8.85601C34.4697 8.39201 34.0537 8.16001 33.4617 8.16001ZM46.7722 17.16C46.2282 17.16 45.7242 16.976 45.2602 16.608C45.2602 16.608 45.1562 16.52 44.9482 16.344V23.544C44.8522 23.864 44.6842 24.128 44.4442 24.336C44.2042 24.56 43.9482 24.672 43.6762 24.672C43.2602 24.672 43.0522 24.392 43.0522 23.832V7.10401C43.1482 6.68801 43.2602 6.39201 43.3882 6.21601C43.5322 6.04001 43.7482 5.95201 44.0362 5.95201C44.3402 5.95201 44.5322 6.02401 44.6122 6.16801C44.7082 6.29601 44.8202 6.66401 44.9482 7.27201C45.0122 6.95201 45.2682 6.65601 45.7162 6.38401C46.1642 6.11201 46.7642 5.97601 47.5162 5.97601C49.1482 5.97601 50.3082 6.56801 50.9962 7.75201C51.6842 8.93601 52.0282 10.336 52.0282 11.952C52.0282 13.552 51.5562 14.824 50.6122 15.768C49.6842 16.696 48.4042 17.16 46.7722 17.16ZM44.9482 9.96001V14.424C45.0442 14.472 45.1562 14.552 45.2842 14.664C45.7482 15.08 46.2522 15.288 46.7962 15.288C49.0042 15.288 50.1082 14.152 50.1082 11.88C50.1082 9.94401 49.6122 8.72001 48.6202 8.20801C48.2042 7.98401 47.6922 7.87201 47.0842 7.87201C46.4922 7.95201 45.9882 8.21601 45.5722 8.66401C45.1562 9.09601 44.9482 9.52801 44.9482 9.96001ZM60.1338 9.40801L60.3258 15.072C60.3258 15.776 60.2938 16.184 60.2298 16.296C60.1978 16.584 60.1018 16.808 59.9418 16.968C59.7978 17.128 59.5098 17.208 59.0778 17.208C58.8698 17.208 58.7018 17.08 58.5738 16.824C58.4458 16.552 58.3738 16.248 58.3578 15.912C58.2458 13.096 58.0938 10.456 57.9018 7.99201C57.7258 5.512 57.6378 3.208 57.6378 1.08001C57.6378 0.744005 57.7498 0.480005 57.9738 0.288004C58.1978 0.096005 58.4618 5.24521e-06 58.7658 5.24521e-06C59.2138 5.24521e-06 59.4778 0.384005 59.5578 1.152C59.6538 1.92001 59.7098 2.88001 59.7258 4.032C59.7578 5.18401 59.7898 6.02401 59.8218 6.55201C60.6218 6.13601 61.4218 5.92801 62.2218 5.92801C64.0778 5.92801 65.2538 6.74401 65.7498 8.37601C66.0378 9.30401 66.1818 10.496 66.1818 11.952C66.1818 12.432 66.1338 13.192 66.0378 14.232C65.9578 15.256 65.9098 15.92 65.8938 16.224C65.8778 16.528 65.7418 16.768 65.4858 16.944C65.2458 17.104 64.9818 17.184 64.6938 17.184C64.2458 17.184 64.0218 16.944 64.0218 16.464L64.1898 12.288C64.1898 11.936 64.1738 11.352 64.1418 10.536C64.1098 9.72001 63.9418 9.07201 63.6378 8.59201C63.3498 8.11201 62.8378 7.87201 62.1018 7.87201C60.7898 7.87201 60.1338 8.38401 60.1338 9.40801ZM79.6199 6.09601C79.8279 6.09601 80.0279 6.16801 80.2199 6.31201C80.4279 6.45601 80.5319 6.616 80.5319 6.79201C80.5319 7.25601 79.8519 9.76801 78.4919 14.328C77.1319 18.888 76.1239 22.088 75.4679 23.928C75.3239 24.36 75.0999 24.576 74.7959 24.576C74.4919 24.576 74.2519 24.464 74.0759 24.24C73.8999 24.032 73.8119 23.72 73.8119 23.304C73.8119 22.888 74.0759 21.888 74.6039 20.304C75.1479 18.736 75.4759 17.736 75.5879 17.304C75.1879 16.632 73.8359 13.272 71.5319 7.22401C71.4999 7.14401 71.4839 7.04001 71.4839 6.912C71.4839 6.78401 71.5799 6.61601 71.7719 6.408C71.9639 6.20001 72.2279 6.09601 72.5639 6.09601C72.8999 6.09601 73.1719 6.26401 73.3799 6.60001C73.6039 7.17601 73.9719 8.18401 74.4839 9.62401C74.9959 11.048 75.3879 12.08 75.6599 12.72C75.9479 13.36 76.2199 14.024 76.4759 14.712C76.6999 13.96 77.0839 12.504 77.6279 10.344C78.1719 8.168 78.4839 6.928 78.5639 6.62401C78.6279 6.27201 78.9799 6.09601 79.6199 6.09601Z" fill="black"/>
</svg>
