<svg width="108" height="33" viewBox="0 0 108 33" fill="none" xmlns="http://www.w3.org/2000/svg">
<path d="M9.18404 1.66411C10.208 1.66411 11.2214 1.92011 12.224 2.43211C13.248 2.94411 13.76 3.52011 13.76 4.16011C13.76 5.14144 13.3547 5.63211 12.544 5.63211C12.2454 5.63211 11.7227 5.44011 10.976 5.05611C10.2294 4.67211 9.60004 4.48011 9.08804 4.48011C7.25337 4.48011 5.71737 5.30144 4.48004 6.94411C3.26404 8.58678 2.65604 10.6774 2.65604 13.2161C2.65604 15.1148 3.07204 16.7788 3.90404 18.2081C4.73604 19.6374 5.71737 20.3521 6.84804 20.3521C8.00004 20.3521 8.89604 19.9788 9.53604 19.2321C10.1974 18.4641 10.528 17.6001 10.528 16.6401C10.528 16.1068 10.4854 15.6694 10.4 15.3281C10.336 14.9654 10.1547 14.6454 9.85604 14.3681C9.55738 14.0694 9.16271 13.9201 8.67204 13.9201C8.18138 13.9201 7.71204 13.8134 7.26404 13.6001C6.83738 13.3868 6.62404 13.0988 6.62404 12.7361C6.62404 12.3734 6.73071 12.0321 6.94404 11.7121C7.15738 11.3921 7.44538 11.2001 7.80804 11.1361C9.25871 11.1361 10.2294 11.2854 10.72 11.5841C11.232 11.8828 11.616 12.1281 11.872 12.3201C12.128 12.5121 12.3414 12.8321 12.512 13.2801C12.6827 13.7281 12.8107 14.1014 12.896 14.4001C13.0027 14.6988 13.0774 15.1788 13.12 15.8401C13.1627 16.9494 13.184 18.2508 13.184 19.7441C13.184 21.2161 13.0774 22.1228 12.864 22.4641C12.672 22.7414 12.352 22.8908 11.904 22.9121C11.456 22.9121 11.1467 22.8161 10.976 22.6241C10.8054 22.4321 10.6987 22.0054 10.656 21.3441C10.144 21.7921 9.49337 22.1761 8.70404 22.4961C7.93604 22.7948 7.25337 22.9441 6.65604 22.9441C4.77871 22.9441 3.20004 21.9521 1.92004 19.9681C0.640041 17.9628 4.11272e-05 15.5521 4.11272e-05 12.7361C4.11272e-05 11.2428 0.245374 9.78144 0.736041 8.35211C1.22671 6.90144 1.88804 5.68544 2.72004 4.70411C4.46937 2.67744 6.62404 1.66411 9.18404 1.66411ZM25.071 18.2401L25.103 21.5361C25.103 21.9201 24.9217 22.2721 24.559 22.5921C24.2177 22.9121 23.8764 23.0721 23.535 23.0721C23.0444 23.0721 22.735 22.6881 22.607 21.9201C22.5857 21.7494 22.5004 20.1921 22.351 17.2481C22.2017 14.2828 21.9137 11.9574 21.487 10.2721C21.295 9.46144 21.199 8.98144 21.199 8.83211C21.199 8.12811 21.6257 7.77611 22.479 7.77611C22.8417 7.77611 23.1297 7.91478 23.343 8.19211C23.5564 8.46944 23.6844 8.75744 23.727 9.05611C23.791 9.33344 23.8444 9.71744 23.887 10.2081C23.9297 10.6988 23.9617 11.0081 23.983 11.1361C24.431 10.0694 25.103 9.26944 25.999 8.73611C26.895 8.20278 27.8764 7.93611 28.943 7.93611C30.6924 7.93611 31.567 8.38411 31.567 9.28011C31.567 9.72811 31.407 10.0908 31.087 10.3681C30.7884 10.6241 30.4364 10.7521 30.031 10.7521C28.2177 10.7521 26.9377 11.3281 26.191 12.4801C25.4444 13.6321 25.071 15.5521 25.071 18.2401ZM47.9435 7.96811C48.8822 7.96811 49.3515 8.76811 49.3515 10.3681C49.3515 10.5388 49.3515 10.7201 49.3515 10.9121L49.2875 13.1521C49.2662 13.8561 49.2555 14.5494 49.2555 15.2321L49.7355 22.4641C49.7355 22.9974 49.1915 23.2641 48.1035 23.2641C48.0395 23.2641 47.8795 23.2641 47.6235 23.2641C47.3889 23.2641 47.2182 23.1681 47.1115 22.9761C47.0262 22.7841 47.0155 22.5494 47.0795 22.2721C47.1649 21.9948 47.1435 21.6854 47.0155 21.3441C46.0342 22.3894 44.7329 22.9121 43.1115 22.9121C40.1035 22.9121 38.5995 20.5868 38.5995 15.9361C38.5995 13.3548 39.0795 11.4028 40.0395 10.0801C41.0209 8.75744 42.4182 8.09611 44.2315 8.09611C45.0849 8.09611 45.9382 8.24544 46.7915 8.54411C47.0689 8.16011 47.4529 7.96811 47.9435 7.96811ZM44.6155 10.8801C43.3995 10.8801 42.4929 11.2321 41.8955 11.9361C41.2982 12.6401 40.9995 13.9308 40.9995 15.8081C40.9995 18.9654 41.8529 20.5441 43.5595 20.5441C44.0075 20.5441 44.4982 20.3414 45.0315 19.9361C45.5862 19.5308 45.9702 19.0721 46.1835 18.5601C46.5889 17.4081 46.7915 16.1494 46.7915 14.7841C46.7915 13.4188 46.6209 12.4268 46.2795 11.8081C45.9595 11.1894 45.4049 10.8801 44.6155 10.8801ZM62.3628 22.8801C61.6375 22.8801 60.9655 22.6348 60.3468 22.1441C60.3468 22.1441 60.2081 22.0268 59.9308 21.7921V31.3921C59.8028 31.8188 59.5788 32.1708 59.2588 32.4481C58.9388 32.7468 58.5975 32.8961 58.2348 32.8961C57.6801 32.8961 57.4028 32.5228 57.4028 31.7761V9.47211C57.5308 8.91744 57.6801 8.52278 57.8508 8.28811C58.0428 8.05344 58.3308 7.93611 58.7148 7.93611C59.1201 7.93611 59.3761 8.03211 59.4828 8.22411C59.6108 8.39478 59.7601 8.88544 59.9308 9.69611C60.0161 9.26944 60.3575 8.87478 60.9548 8.51211C61.5521 8.14944 62.3521 7.96811 63.3548 7.96811C65.5308 7.96811 67.0775 8.75744 67.9948 10.3361C68.9121 11.9148 69.3708 13.7814 69.3708 15.9361C69.3708 18.0694 68.7415 19.7654 67.4828 21.0241C66.2455 22.2614 64.5388 22.8801 62.3628 22.8801ZM59.9308 13.2801V19.2321C60.0588 19.2961 60.2081 19.4028 60.3788 19.5521C60.9975 20.1068 61.6695 20.3841 62.3948 20.3841C65.3388 20.3841 66.8108 18.8694 66.8108 15.8401C66.8108 13.2588 66.1495 11.6268 64.8268 10.9441C64.2721 10.6454 63.5895 10.4961 62.7788 10.4961C61.9895 10.6028 61.3175 10.9548 60.7628 11.5521C60.2081 12.1281 59.9308 12.7041 59.9308 13.2801ZM80.1783 12.5441L80.4343 20.0961C80.4343 21.0348 80.3916 21.5788 80.3063 21.7281C80.2636 22.1121 80.1356 22.4108 79.9223 22.6241C79.7303 22.8374 79.3463 22.9441 78.7703 22.9441C78.493 22.9441 78.269 22.7734 78.0983 22.4321C77.9276 22.0694 77.8316 21.6641 77.8103 21.2161C77.661 17.4614 77.4583 13.9414 77.2023 10.6561C76.9676 7.34944 76.8503 4.27744 76.8503 1.44011C76.8503 0.992109 76.9996 0.640108 77.2983 0.384108C77.597 0.128108 77.949 0.000108719 78.3543 0.000108719C78.9516 0.000108719 79.3036 0.512108 79.4103 1.53611C79.5383 2.56011 79.613 3.84011 79.6343 5.37611C79.677 6.91211 79.7196 8.03211 79.7623 8.73611C80.829 8.18144 81.8956 7.90411 82.9623 7.90411C85.437 7.90411 87.005 8.99211 87.6663 11.1681C88.0503 12.4054 88.2423 13.9948 88.2423 15.9361C88.2423 16.5761 88.1783 17.5894 88.0503 18.9761C87.9436 20.3414 87.8796 21.2268 87.8583 21.6321C87.837 22.0374 87.6556 22.3574 87.3143 22.5921C86.9943 22.8054 86.6423 22.9121 86.2583 22.9121C85.661 22.9121 85.3623 22.5921 85.3623 21.9521L85.5863 16.3841C85.5863 15.9148 85.565 15.1361 85.5223 14.0481C85.4796 12.9601 85.2556 12.0961 84.8503 11.4561C84.4663 10.8161 83.7836 10.4961 82.8023 10.4961C81.053 10.4961 80.1783 11.1788 80.1783 12.5441ZM106.16 8.12811C106.437 8.12811 106.704 8.22411 106.96 8.41611C107.237 8.60811 107.376 8.82144 107.376 9.05611C107.376 9.67478 106.469 13.0241 104.656 19.1041C102.842 25.1841 101.498 29.4508 100.624 31.9041C100.432 32.4801 100.133 32.7681 99.7278 32.7681C99.3225 32.7681 99.0025 32.6188 98.7678 32.3201C98.5331 32.0428 98.4158 31.6268 98.4158 31.0721C98.4158 30.5174 98.7678 29.1841 99.4718 27.0721C100.197 24.9814 100.634 23.6481 100.784 23.0721C100.25 22.1761 98.4478 17.6961 95.3758 9.63211C95.3331 9.52544 95.3118 9.38678 95.3118 9.21611C95.3118 9.04544 95.4398 8.82144 95.6958 8.54411C95.9518 8.26678 96.3038 8.12811 96.7518 8.12811C97.1998 8.12811 97.5625 8.35211 97.8398 8.80011C98.1385 9.56811 98.6291 10.9121 99.3118 12.8321C99.9945 14.7308 100.517 16.1068 100.88 16.9601C101.264 17.8134 101.626 18.6988 101.968 19.6161C102.266 18.6134 102.778 16.6721 103.504 13.7921C104.229 10.8908 104.645 9.23744 104.752 8.83211C104.837 8.36278 105.306 8.12811 106.16 8.12811Z" fill="white"/>
</svg>
