<svg width="93" height="176" viewBox="0 0 93 176" fill="none" xmlns="http://www.w3.org/2000/svg">
<g clip-path="url(#clip0_105_1414)">
<path d="M23.0338 169.092L46.3407 154.651L11.4951 144.216L23.0338 169.092Z" fill="#CCAE9A" stroke="#CCAE9A" stroke-miterlimit="10"/>
<path d="M24.5636 168.172L45.8585 154.981L38.856 152.263L24.5636 168.172Z" fill="#9B8272" stroke="#9B8272" stroke-miterlimit="10"/>
<path d="M23.0241 169.125L30.1682 164.644L19.5132 161.453L23.0241 169.125Z" fill="black" stroke="black" stroke-miterlimit="10"/>
<path d="M48.4531 19.1096L60.4293 22.6961L23.5688 145.785C22.6292 148.922 19.1848 150.664 15.8789 149.674C12.573 148.684 10.653 145.336 11.5926 142.198L48.4531 19.1096Z" fill="#4583DD" stroke="#4583DD" stroke-miterlimit="10"/>
<path d="M60.4236 22.6944L72.3998 26.2808L35.5392 149.37C34.5997 152.507 31.1553 154.249 27.8494 153.259C24.5434 152.269 22.6235 148.92 23.563 145.783L60.4236 22.6944Z" fill="#3173D3" stroke="#3173D3" stroke-miterlimit="10"/>
<path d="M72.3999 26.2808L84.3761 29.8672L47.5155 152.956C46.576 156.093 43.1316 157.835 39.8257 156.845C36.5197 155.855 34.5998 152.507 35.5393 149.37L72.3999 26.2808Z" fill="#2A59A0" stroke="#2A59A0" stroke-miterlimit="10"/>
<path d="M58.0447 6.20783L83.4488 13.8154C86.3521 14.6849 88.0366 17.6229 87.2115 20.3781L84.3703 29.8655L48.4531 19.1096L51.2942 9.62222C52.1193 6.86695 55.1414 5.33839 58.0447 6.20783Z" fill="#262626" stroke="#262626" stroke-miterlimit="10"/>
<path d="M76.7405 11.8065L83.4544 13.8171C86.3577 14.6866 88.0422 17.6246 87.2171 20.3798L84.376 29.8672L81.5974 29.0352C82.0591 28.0299 83.8908 23.729 82.0218 18.6423C80.6081 14.8002 77.855 12.6036 76.7405 11.8065Z" fill="#141414" stroke="#141414" stroke-miterlimit="10"/>
<path d="M50.1597 19.9315L51.617 20.3679L14.6915 141.156C13.7511 144.234 12.2832 146.516 11.4115 146.249C10.5383 145.987 10.6393 143.133 11.5798 140.054L48.0948 19.2955L50.167 19.9278L50.1597 19.9315Z" fill="#A1CCFF"/>
<path d="M64.7586 8.2184L58.0447 6.20783C55.1414 5.33839 52.1193 6.86695 51.2942 9.62222L48.4531 19.1096L51.4244 19.9994C52.0291 18.2278 54.0094 14.1942 58.375 11.1093C60.7507 9.42827 63.1171 8.62402 64.7586 8.2184Z" fill="#939393" stroke="#939393" stroke-miterlimit="10"/>
<path d="M62.1326 69.8719C65.183 70.7853 68.3585 69.1791 69.2254 66.2844C70.0923 63.3896 68.3222 60.3024 65.2719 59.3889C62.2216 58.4754 59.046 60.0816 58.1791 62.9764C57.3123 65.8712 59.0823 68.9584 62.1326 69.8719Z" fill="black"/>
<path d="M46.8563 65.2971C49.9066 66.2106 53.0821 64.6044 53.949 61.7096C54.8159 58.8148 53.0459 55.7276 49.9955 54.8141C46.9452 53.9007 43.7697 55.5069 42.9028 58.4016C42.0359 61.2964 43.8059 64.3836 46.8563 65.2971Z" fill="black"/>
<path d="M50.7781 68.8113C50.7781 68.8113 50.5253 78.0945 56.5337 70.5349Z" fill="black"/>
<path d="M64.278 72.8599C66.4859 73.5211 68.5081 73.2813 68.7947 72.3242C69.0813 71.3672 67.5237 70.0554 65.3159 69.3943C63.108 68.7331 61.0858 68.9729 60.7992 69.9299C60.5126 70.8869 62.0701 72.1987 64.278 72.8599Z" fill="#CE8EAB"/>
<path d="M42.2365 66.2593C44.4444 66.9205 46.4666 66.6807 46.7532 65.7237C47.0398 64.7667 45.4822 63.4549 43.2743 62.7937C41.0665 62.1325 39.0443 62.3723 38.7577 63.3293C38.4711 64.2863 40.0286 65.5981 42.2365 66.2593Z" fill="#CE8EAB"/>
<path d="M61.9346 64.488C62.705 64.7187 63.507 64.313 63.726 63.5819C63.9449 62.8508 63.4979 62.0711 62.7275 61.8403C61.9571 61.6096 61.155 62.0153 60.9361 62.7464C60.7171 63.4776 61.1642 64.2573 61.9346 64.488Z" fill="white"/>
<path d="M65.3887 67.8094C65.7802 67.9266 66.1877 67.7205 66.299 67.349C66.4102 66.9775 66.1831 66.5813 65.7916 66.464C65.4001 66.3468 64.9926 66.5529 64.8813 66.9244C64.7701 67.296 64.9972 67.6922 65.3887 67.8094Z" fill="white"/>
<path d="M50.1162 60.8902C50.8867 61.1209 51.6887 60.7152 51.9076 59.9841C52.1266 59.253 51.6795 58.4732 50.9091 58.2425C50.1387 58.0118 49.3367 58.4175 49.1177 59.1486C48.8988 59.8797 49.3458 60.6595 50.1162 60.8902Z" fill="white"/>
<path d="M45.4048 61.7663C45.7963 61.8835 46.2038 61.6774 46.3151 61.3059C46.4263 60.9344 46.1992 60.5382 45.8077 60.4209C45.4162 60.3037 45.0087 60.5098 44.8974 60.8814C44.7862 61.2529 45.0133 61.6491 45.4048 61.7663Z" fill="white"/>
</g>
<defs>
<clipPath id="clip0_105_1414">
<rect width="45.7625" height="169.935" fill="white" transform="translate(48.7505) rotate(16.671)"/>
</clipPath>
</defs>
</svg>
