<svg width="44" height="44" viewBox="0 0 44 44" fill="none" xmlns="http://www.w3.org/2000/svg">
<path d="M44 22C44 34.1503 34.1503 44 22 44C9.84974 44 0 34.1503 0 22C0 9.84974 9.84974 0 22 0C34.1503 0 44 9.84974 44 22Z" fill="#5C6010"/>
<path d="M28.4944 23.1107L21.5 29.5635L14.5056 23.1107C13.5451 22.2246 13 20.9845 13 19.6855C13 17.0977 15.1222 15 17.7402 15H17.8365C19.0939 15 20.2992 15.4935 21.1883 16.3723L21.5 16.6804L21.8117 16.3723C22.7008 15.4935 23.9061 15 25.1635 15H25.2598C27.8778 15 30 17.0977 30 19.6855C30 20.9845 29.4549 22.2246 28.4944 23.1107Z" fill="white"/>
</svg>
