<svg width="23" height="23" viewBox="0 0 23 23" fill="none" xmlns="http://www.w3.org/2000/svg">
<g clip-path="url(#clip0_105_1736)">
<path fill-rule="evenodd" clip-rule="evenodd" d="M12.65 11.5C12.65 12.1348 12.1348 12.65 11.5 12.65C10.8652 12.65 10.35 12.1348 10.35 11.5C10.35 10.8652 10.8652 10.35 11.5 10.35C12.1348 10.35 12.65 10.8652 12.65 11.5ZM17.25 12.65H18.2965C17.8089 15.533 15.533 17.8091 12.65 18.2967V17.25C12.65 16.6152 12.1348 16.1 11.5 16.1C10.8652 16.1 10.35 16.6152 10.35 17.25V18.2967C7.46695 17.8091 5.1911 15.533 4.7035 12.65H5.75C6.3848 12.65 6.9 12.1348 6.9 11.5C6.9 10.8652 6.3848 10.35 5.75 10.35H4.7035C5.1911 7.46695 7.46695 5.19092 10.35 4.70332V5.75C10.35 6.3848 10.8652 6.9 11.5 6.9C12.1348 6.9 12.65 6.3848 12.65 5.75V4.70332C15.533 5.19092 17.8089 7.46695 18.2965 10.35H17.25C16.6152 10.35 16.1 10.8652 16.1 11.5C16.1 12.1348 16.6152 12.65 17.25 12.65ZM21.85 10.35H20.6206C20.1008 6.19045 16.8095 2.89897 12.65 2.37917V1.15C12.65 0.5152 12.1348 0 11.5 0C10.8652 0 10.35 0.5152 10.35 1.15V2.37917C6.19045 2.89897 2.89915 6.19045 2.37935 10.35H1.15C0.5152 10.35 0 10.8652 0 11.5C0 12.1348 0.5152 12.65 1.15 12.65H2.37935C2.89915 16.8095 6.19045 20.101 10.35 20.6208V21.85C10.35 22.4848 10.8652 23 11.5 23C12.1348 23 12.65 22.4848 12.65 21.85V20.6208C16.8095 20.101 20.1008 16.8095 20.6206 12.65H21.85C22.4848 12.65 23 12.1348 23 11.5C23 10.8652 22.4848 10.35 21.85 10.35Z" fill="#5C6010"/>
</g>
<defs>
<clipPath id="clip0_105_1736">
<rect width="23" height="23" fill="white"/>
</clipPath>
</defs>
</svg>
