<svg width="150" height="200" viewBox="0 0 150 200" fill="none" xmlns="http://www.w3.org/2000/svg">
<g clip-path="url(#clip0_106_1832)">
<path d="M141.242 0.835449H24.2304C19.815 0.835449 16.2356 4.72602 16.2356 9.52529V190.474C16.2356 195.274 19.815 199.164 24.2304 199.164H141.242C145.657 199.164 149.236 195.274 149.236 190.474V9.52529C149.236 4.72602 145.657 0.835449 141.242 0.835449Z" fill="#6F7575"/>
<path d="M23.9947 20.3267H8.47149C4.21741 20.3267 0.768799 24.0751 0.768799 28.699V28.7046C0.768799 33.3285 4.21741 37.0769 8.47149 37.0769H23.9947C28.2488 37.0769 31.6974 33.3285 31.6974 28.7046V28.699C31.6974 24.0751 28.2488 20.3267 23.9947 20.3267Z" fill="#B3B1B2"/>
<path d="M23.9947 55.5869H8.47149C4.21741 55.5869 0.768799 59.3353 0.768799 63.9592V63.9648C0.768799 68.5887 4.21741 72.3371 8.47149 72.3371H23.9947C28.2488 72.3371 31.6974 68.5887 31.6974 63.9648V63.9592C31.6974 59.3353 28.2488 55.5869 23.9947 55.5869Z" fill="#B3B1B2"/>
<path d="M23.9947 90.8423H8.47149C4.21741 90.8423 0.768799 94.5907 0.768799 99.2146V99.2202C0.768799 103.844 4.21741 107.593 8.47149 107.593H23.9947C28.2488 107.593 31.6974 103.844 31.6974 99.2202V99.2146C31.6974 94.5907 28.2488 90.8423 23.9947 90.8423Z" fill="#B3B1B2"/>
<path d="M23.9947 126.103H8.47149C4.21741 126.103 0.768799 129.851 0.768799 134.475V134.481C0.768799 139.105 4.21741 142.853 8.47149 142.853H23.9947C28.2488 142.853 31.6974 139.105 31.6974 134.481V134.475C31.6974 129.851 28.2488 126.103 23.9947 126.103Z" fill="#B3B1B2"/>
<path d="M23.9947 161.364H8.47149C4.21741 161.364 0.768799 165.112 0.768799 169.736V169.742C0.768799 174.366 4.21741 178.114 8.47149 178.114H23.9947C28.2488 178.114 31.6974 174.366 31.6974 169.742V169.736C31.6974 165.112 28.2488 161.364 23.9947 161.364Z" fill="#B3B1B2"/>
<path d="M116.478 106.049C126.668 106.049 134.928 97.0711 134.928 85.9959C134.928 74.9206 126.668 65.9424 116.478 65.9424C106.289 65.9424 98.0286 74.9206 98.0286 85.9959C98.0286 97.0711 106.289 106.049 116.478 106.049Z" fill="#2D2D2D"/>
<path d="M111.138 87.6112C114.087 87.6112 116.478 85.0125 116.478 81.8068C116.478 78.6011 114.087 76.0024 111.138 76.0024C108.189 76.0024 105.798 78.6011 105.798 81.8068C105.798 85.0125 108.189 87.6112 111.138 87.6112Z" fill="white"/>
<path d="M123.914 97.9555C125.567 97.9555 126.907 96.499 126.907 94.7023C126.907 92.9057 125.567 91.4492 123.914 91.4492C122.261 91.4492 120.921 92.9057 120.921 94.7023C120.921 96.499 122.261 97.9555 123.914 97.9555Z" fill="white"/>
<path d="M54.7953 107.665C64.9847 107.665 73.2448 98.6868 73.2448 87.6116C73.2448 76.5364 64.9847 67.5581 54.7953 67.5581C44.6059 67.5581 36.3457 76.5364 36.3457 87.6116C36.3457 98.6868 44.6059 107.665 54.7953 107.665Z" fill="#2D2D2D"/>
<path d="M60.1353 89.2269C63.0846 89.2269 65.4754 86.6282 65.4754 83.4225C65.4754 80.2169 63.0846 77.6182 60.1353 77.6182C57.186 77.6182 54.7952 80.2169 54.7952 83.4225C54.7952 86.6282 57.186 89.2269 60.1353 89.2269Z" fill="white"/>
<path d="M47.3591 99.5712C49.0121 99.5712 50.3521 98.1147 50.3521 96.3181C50.3521 94.5214 49.0121 93.0649 47.3591 93.0649C45.7062 93.0649 44.3662 94.5214 44.3662 96.3181C44.3662 98.1147 45.7062 99.5712 47.3591 99.5712Z" fill="white"/>
<path d="M124.791 113.614C132.888 113.614 139.453 110.918 139.453 107.592C139.453 104.267 132.888 101.571 124.791 101.571C116.693 101.571 110.128 104.267 110.128 107.592C110.128 110.918 116.693 113.614 124.791 113.614Z" fill="#EFA3AC"/>
<path d="M49.6755 114.422C57.7732 114.422 64.3377 111.726 64.3377 108.4C64.3377 105.074 57.7732 102.378 49.6755 102.378C41.5777 102.378 35.0132 105.074 35.0132 108.4C35.0132 111.726 41.5777 114.422 49.6755 114.422Z" fill="#EFA3AC"/>
<path d="M74.7156 113.614C74.7156 113.614 84.4477 138.297 101.206 113.614H74.7156Z" fill="#2D2D2D"/>
</g>
<defs>
<clipPath id="clip0_106_1832">
<rect width="150" height="200" fill="white"/>
</clipPath>
</defs>
</svg>
