<svg width="50" height="168" viewBox="0 0 50 168" fill="none" xmlns="http://www.w3.org/2000/svg">
<g clip-path="url(#clip0_71_27)">
<path d="M26.0833 167.434L45.9513 147.146H6.20874L26.0833 167.434Z" fill="#CCAE9A" stroke="#CCAE9A" stroke-miterlimit="10"/>
<path d="M27.3962 166.128L45.5504 147.596L37.3691 147.008L27.3962 166.128Z" fill="#9B8272" stroke="#9B8272" stroke-miterlimit="10"/>
<path d="M26.0833 167.467L32.1563 161.197H20.0039L26.0833 167.467Z" fill="black" stroke="black" stroke-miterlimit="10"/>
<path d="M5.67822 18.1821H19.3375V145.208C19.3375 148.446 16.2784 151.073 12.5079 151.073C8.73734 151.073 5.67822 148.446 5.67822 145.208V18.1821Z" fill="#BC444A"/>
<path d="M19.3311 18.1821H32.9903V145.208C32.9903 148.446 29.9312 151.073 26.1607 151.073C22.3902 151.073 19.3311 148.446 19.3311 145.208V18.1821Z" fill="#8F3637"/>
<path d="M32.9902 18.1821H46.6495V145.208C46.6495 148.446 43.5904 151.073 39.8199 151.073C36.0493 151.073 32.9902 148.446 32.9902 145.208V18.1821Z" fill="#521F1F"/>
<path d="M11.6736 3.24316H40.6478C43.9592 3.24316 46.6432 5.54788 46.6432 8.39129V18.1822H5.67822V8.39129C5.67822 5.54788 8.36222 3.24316 11.6736 3.24316Z" fill="#262626" stroke="#262626" stroke-miterlimit="10"/>
<path d="M32.9968 3.24316H40.6543C43.9657 3.24316 46.6497 5.54788 46.6497 8.39129V18.1822H43.4806C43.6487 17.0992 44.2179 12.5065 40.6672 8.21913C37.9832 4.98142 34.4132 3.68189 32.9968 3.24316Z" fill="#141414" stroke="#141414" stroke-miterlimit="10"/>
<path d="M7.72205 18.4766H9.38419L8.59516 143.342C8.57576 146.524 7.75439 149.101 6.7584 149.096C5.76241 149.096 4.97338 146.363 4.99278 143.181L5.36143 18.46L7.72852 18.4711L7.72205 18.4766Z" fill="#CC7F86"/>
<path d="M19.331 3.24316H11.6736C8.36222 3.24316 5.67822 5.54788 5.67822 8.39129V18.1822H9.06718C9.14479 16.3328 9.95322 11.9511 13.5556 7.79151C15.5152 5.52567 17.7401 4.09285 19.331 3.24316Z" fill="#939393" stroke="#939393" stroke-miterlimit="10"/>
<path d="M35.9075 62.3774C39.3865 62.3774 42.2068 59.9556 42.2068 56.9682C42.2068 53.9808 39.3865 51.5591 35.9075 51.5591C32.4285 51.5591 29.6082 53.9808 29.6082 56.9682C29.6082 59.9556 32.4285 62.3774 35.9075 62.3774Z" fill="black"/>
<path d="M18.4841 62.3774C21.9631 62.3774 24.7834 59.9556 24.7834 56.9682C24.7834 53.9808 21.9631 51.5591 18.4841 51.5591C15.0051 51.5591 12.1848 53.9808 12.1848 56.9682C12.1848 59.9556 15.0051 62.3774 18.4841 62.3774Z" fill="black"/>
<path d="M39.2923 63.5777C41.7349 62.9655 43.5204 61.6927 43.2803 60.7347C43.0402 59.7767 40.8654 59.4964 38.4228 60.1086C35.9801 60.7208 34.1946 61.9936 34.4347 62.9516C34.6748 63.9096 36.8496 64.1899 39.2923 63.5777Z" fill="#CE8EAB"/>
<path d="M13.9504 64.5987C16.4686 64.5987 18.51 63.7981 18.51 62.8105C18.51 61.8228 16.4686 61.0222 13.9504 61.0222C11.4323 61.0222 9.39087 61.8228 9.39087 62.8105C9.39087 63.7981 11.4323 64.5987 13.9504 64.5987Z" fill="#CE8EAB"/>
<path d="M34.0126 57.3349C34.8913 57.3349 35.6036 56.7232 35.6036 55.9687C35.6036 55.2142 34.8913 54.6025 34.0126 54.6025C33.1339 54.6025 32.4216 55.2142 32.4216 55.9687C32.4216 56.7232 33.1339 57.3349 34.0126 57.3349Z" fill="white"/>
<path d="M38.669 59.5007C39.1155 59.5007 39.4775 59.1899 39.4775 58.8065C39.4775 58.4231 39.1155 58.1123 38.669 58.1123C38.2225 58.1123 37.8606 58.4231 37.8606 58.8065C37.8606 59.1899 38.2225 59.5007 38.669 59.5007Z" fill="white"/>
<path d="M20.5148 57.2792C21.3935 57.2792 22.1058 56.6676 22.1058 55.913C22.1058 55.1585 21.3935 54.5469 20.5148 54.5469C19.6361 54.5469 18.9238 55.1585 18.9238 55.913C18.9238 56.6676 19.6361 57.2792 20.5148 57.2792Z" fill="white"/>
<path d="M15.8582 59.445C16.3047 59.445 16.6667 59.1342 16.6667 58.7508C16.6667 58.3674 16.3047 58.0566 15.8582 58.0566C15.4118 58.0566 15.0498 58.3674 15.0498 58.7508C15.0498 59.1342 15.4118 59.445 15.8582 59.445Z" fill="white"/>
<path d="M21 68L32 65" stroke="black"/>
</g>
<defs>
<clipPath id="clip0_71_27">
<rect width="50" height="168" fill="white"/>
</clipPath>
</defs>
</svg>
