<svg width="214" height="36" viewBox="0 0 214 36" fill="none" xmlns="http://www.w3.org/2000/svg">
<mask id="mask0_37_477" style="mask-type:luminance" maskUnits="userSpaceOnUse" x="0" y="0" width="214" height="36">
<path d="M213.089 0H0V35.9233H213.089V0Z" fill="white"/>
</mask>
<g mask="url(#mask0_37_477)">
<path d="M19.1231 25.8499L25.7371 29.6065C26.948 30.2954 28.43 29.2774 28.1111 27.9906L26.3586 20.9252L32.2062 16.1654C33.2744 15.2974 32.7007 13.6507 31.2985 13.5462L23.6014 12.9323L20.5888 6.25696C20.0479 5.0439 18.1984 5.0439 17.6574 6.25696L14.6448 12.9175L6.94769 13.5308C5.54554 13.636 4.97184 15.282 6.03933 16.1506L11.8883 20.9105L10.1351 27.9752C9.81687 29.262 11.2983 30.28 12.5099 29.5917L19.1231 25.8499Z" fill="#E0E0E0"/>
<path d="M62.8338 25.8499L69.4478 29.6065C70.6587 30.2954 72.1407 29.2774 71.8218 27.9906L70.0693 20.9252L75.9169 16.1654C76.9851 15.2974 76.4114 13.6507 75.0092 13.5462L67.3121 12.9323L64.2995 6.25696C63.7586 5.0439 61.9091 5.0439 61.3681 6.25696L58.3555 12.9175L50.6584 13.5308C49.2562 13.636 48.6825 15.282 49.75 16.1506L55.599 20.9105L53.8458 27.9752C53.5276 29.262 55.0089 30.28 56.2205 29.5917L62.8338 25.8499Z" fill="#E0E0E0"/>
<path d="M106.544 25.8499L113.158 29.6065C114.369 30.2954 115.851 29.2774 115.532 27.9906L113.78 20.9252L119.627 16.1654C120.696 15.2974 120.122 13.6507 118.72 13.5462L111.023 12.9323L108.01 6.25696C107.469 5.0439 105.62 5.0439 105.079 6.25696L102.066 12.9175L94.3688 13.5308C92.9667 13.636 92.393 15.282 93.4605 16.1506L99.3095 20.9105L97.5563 27.9752C97.238 29.262 98.7194 30.28 99.931 29.5917L106.544 25.8499Z" fill="#E0E0E0"/>
<path d="M150.255 25.8499L156.869 29.6065C158.08 30.2954 159.562 29.2774 159.243 27.9906L157.49 20.9252L163.338 16.1654C164.406 15.2974 163.832 13.6507 162.43 13.5462L154.733 12.9323L151.72 6.25696C151.179 5.0439 149.33 5.0439 148.789 6.25696L145.776 12.9175L138.079 13.5308C136.677 13.636 136.103 15.282 137.171 16.1506L143.02 20.9105L141.267 27.9752C140.948 29.262 142.43 30.28 143.641 29.5917L150.255 25.8499Z" fill="#E0E0E0"/>
<path d="M193.965 25.8499L200.579 29.6065C201.79 30.2954 203.272 29.2774 202.953 27.9906L201.201 20.9252L207.048 16.1654C208.117 15.2974 207.543 13.6507 206.141 13.5462L198.444 12.9323L195.431 6.25696C194.89 5.0439 193.041 5.0439 192.5 6.25696L189.487 12.9175L181.79 13.5308C180.388 13.636 179.814 15.282 180.882 16.1506L186.731 20.9105L184.977 27.9752C184.659 29.262 186.141 30.28 187.352 29.5917L193.965 25.8499Z" fill="#E0E0E0"/>
<path d="M19.1231 25.8499L25.7371 29.6065C26.948 30.2954 28.43 29.2774 28.1111 27.9906L26.3586 20.9252L32.2062 16.1654C33.2744 15.2974 32.7007 13.6507 31.2985 13.5462L23.6014 12.9323L20.5888 6.25696C20.0479 5.0439 18.1984 5.0439 17.6574 6.25696L14.6448 12.9175L6.94769 13.5308C5.54554 13.636 4.97184 15.282 6.03933 16.1506L11.8883 20.9105L10.1351 27.9752C9.81687 29.262 11.2983 30.28 12.5099 29.5917L19.1231 25.8499Z" fill="#5C6010"/>
<path d="M62.8338 25.8499L69.4478 29.6065C70.6587 30.2954 72.1407 29.2774 71.8218 27.9906L70.0693 20.9252L75.9169 16.1654C76.9851 15.2974 76.4114 13.6507 75.0092 13.5462L67.3121 12.9323L64.2995 6.25696C63.7586 5.0439 61.9091 5.0439 61.3681 6.25696L58.3555 12.9175L50.6584 13.5308C49.2562 13.636 48.6825 15.282 49.75 16.1506L55.599 20.9105L53.8458 27.9752C53.5276 29.262 55.0089 30.28 56.2205 29.5917L62.8338 25.8499Z" fill="#5C6010"/>
<path d="M106.544 25.8499L113.158 29.6065C114.369 30.2954 115.851 29.2774 115.532 27.9906L113.78 20.9252L119.627 16.1654C120.696 15.2974 120.122 13.6507 118.72 13.5462L111.023 12.9323L108.01 6.25696C107.469 5.0439 105.62 5.0439 105.079 6.25696L102.066 12.9175L94.3688 13.5308C92.9667 13.636 92.393 15.282 93.4605 16.1506L99.3095 20.9105L97.5563 27.9752C97.238 29.262 98.7194 30.28 99.931 29.5917L106.544 25.8499Z" fill="#5C6010"/>
<path d="M150.255 25.8499L156.869 29.6065C158.08 30.2954 159.562 29.2774 159.243 27.9906L157.49 20.9252L163.338 16.1654C164.406 15.2974 163.832 13.6507 162.43 13.5462L154.733 12.9323L151.72 6.25696C151.179 5.0439 149.33 5.0439 148.789 6.25696L145.776 12.9175L138.079 13.5308C136.677 13.636 136.103 15.282 137.171 16.1506L143.02 20.9105L141.267 27.9752C140.948 29.262 142.43 30.28 143.641 29.5917L150.255 25.8499Z" fill="#5C6010"/>
<path d="M193.966 5.84717C194.402 5.84723 194.798 6.06529 194.974 6.46045L194.975 6.4624L197.988 13.1382L198.109 13.4067L198.404 13.4312L206.101 14.0444H206.103C207.109 14.1194 207.408 15.2284 206.733 15.7769V15.7778L200.885 20.5376L200.639 20.7378L200.716 21.0454L202.469 28.1108C202.57 28.5223 202.394 28.8972 202.058 29.1265C201.721 29.357 201.253 29.4143 200.827 29.1724L200.826 29.1714L194.213 25.4155L193.966 25.2749L193.719 25.4146L187.106 29.1567H187.105C186.679 29.3989 186.21 29.3415 185.873 29.1108C185.579 28.9101 185.407 28.5982 185.437 28.2476L185.463 28.0952L187.216 21.0308L187.293 20.7231L187.047 20.5229L181.197 15.7632C180.522 15.2143 180.821 14.1056 181.827 14.0298L181.83 14.0288L189.527 13.4155L189.821 13.3921L189.943 13.1235L192.955 6.46338L192.957 6.46045C193.133 6.06532 193.529 5.84717 193.966 5.84717Z" fill="white" stroke="black"/>
</g>
</svg>
