<svg width="201" height="25" viewBox="0 0 201 25" fill="none" xmlns="http://www.w3.org/2000/svg">
<path d="M13.5551 20.5027L20.1296 24.2593C21.3333 24.9483 22.8065 23.9302 22.4894 22.6434L20.7474 15.578L26.5601 10.8182C27.6219 9.95027 27.0516 8.30358 25.6579 8.19901L18.0067 7.58511L15.012 0.90979C14.4744 -0.303263 12.6359 -0.303263 12.0982 0.90979L9.10359 7.57035L1.45239 8.18362C0.0586145 8.28882 -0.511661 9.93488 0.549459 10.8035L6.36355 15.5633L4.62082 22.628C4.30445 23.9148 5.77698 24.9329 6.98135 24.2445L13.5551 20.5027Z" fill="#E0E0E0"/>
<path d="M57.0046 20.5027L63.579 24.2593C64.7827 24.9483 66.2559 23.9302 65.9389 22.6434L64.1968 15.578L70.0096 10.8182C71.0714 9.95027 70.5011 8.30358 69.1073 8.19901L61.4561 7.58511L58.4615 0.90979C57.9238 -0.303263 56.0854 -0.303263 55.5477 0.90979L52.5531 7.57035L44.9019 8.18362C43.5081 8.28882 42.9378 9.93488 43.9989 10.8035L49.813 15.5633L48.0703 22.628C47.7539 23.9148 49.2264 24.9329 50.4308 24.2445L57.0046 20.5027Z" fill="#E0E0E0"/>
<path d="M100.454 20.5027L107.029 24.2593C108.232 24.9483 109.706 23.9302 109.389 22.6434L107.647 15.578L113.459 10.8182C114.521 9.95027 113.951 8.30358 112.557 8.19901L104.906 7.58511L101.911 0.90979C101.374 -0.303263 99.5351 -0.303263 98.9974 0.90979L96.0028 7.57035L88.3516 8.18362C86.9578 8.28882 86.3875 9.93488 87.4486 10.8035L93.2627 15.5633L91.52 22.628C91.2036 23.9148 92.6762 24.9329 93.8805 24.2445L100.454 20.5027Z" fill="#E0E0E0"/>
<path d="M143.904 20.5027L150.478 24.2593C151.682 24.9483 153.155 23.9302 152.838 22.6434L151.096 15.578L156.909 10.8182C157.971 9.95027 157.4 8.30358 156.006 8.19901L148.355 7.58511L145.361 0.90979C144.823 -0.303263 142.985 -0.303263 142.447 0.90979L139.452 7.57035L131.801 8.18362C130.407 8.28882 129.837 9.93488 130.898 10.8035L136.712 15.5633L134.969 22.628C134.653 23.9148 136.126 24.9329 137.33 24.2445L143.904 20.5027Z" fill="#E0E0E0"/>
<path d="M187.353 20.5027L193.928 24.2593C195.131 24.9483 196.605 23.9302 196.288 22.6434L194.545 15.578L200.358 10.8182C201.42 9.95027 200.85 8.30358 199.456 8.19901L191.805 7.58511L188.81 0.90979C188.272 -0.303263 186.434 -0.303263 185.896 0.90979L182.902 7.57035L175.25 8.18362C173.857 8.28882 173.286 9.93488 174.348 10.8035L180.162 15.5633L178.419 22.628C178.103 23.9148 179.575 24.9329 180.779 24.2445L187.353 20.5027Z" fill="#E0E0E0"/>
<path d="M13.5551 20.5027L20.1296 24.2593C21.3333 24.9483 22.8065 23.9302 22.4894 22.6434L20.7474 15.578L26.5601 10.8182C27.6219 9.95027 27.0516 8.30358 25.6579 8.19901L18.0067 7.58511L15.012 0.90979C14.4744 -0.303263 12.6359 -0.303263 12.0982 0.90979L9.10359 7.57035L1.45239 8.18362C0.0586145 8.28882 -0.511661 9.93488 0.549459 10.8035L6.36355 15.5633L4.62082 22.628C4.30445 23.9148 5.77698 24.9329 6.98135 24.2445L13.5551 20.5027Z" fill="#5C6010"/>
<path d="M57.0046 20.5027L63.579 24.2593C64.7827 24.9483 66.2559 23.9302 65.9389 22.6434L64.1968 15.578L70.0096 10.8182C71.0714 9.95027 70.5011 8.30358 69.1073 8.19901L61.4561 7.58511L58.4615 0.90979C57.9238 -0.303263 56.0854 -0.303263 55.5477 0.90979L52.5531 7.57035L44.9019 8.18362C43.5081 8.28882 42.9378 9.93488 43.9989 10.8035L49.813 15.5633L48.0703 22.628C47.7539 23.9148 49.2264 24.9329 50.4308 24.2445L57.0046 20.5027Z" fill="#5C6010"/>
<path d="M100.454 20.5027L107.029 24.2593C108.232 24.9483 109.706 23.9302 109.389 22.6434L107.647 15.578L113.459 10.8182C114.521 9.95027 113.951 8.30358 112.557 8.19901L104.906 7.58511L101.911 0.90979C101.374 -0.303263 99.5351 -0.303263 98.9974 0.90979L96.0028 7.57035L88.3516 8.18362C86.9578 8.28882 86.3875 9.93488 87.4486 10.8035L93.2627 15.5633L91.52 22.628C91.2036 23.9148 92.6762 24.9329 93.8805 24.2445L100.454 20.5027Z" fill="#5C6010"/>
<path d="M143.904 20.5027L150.478 24.2593C151.682 24.9483 153.155 23.9302 152.838 22.6434L151.096 15.578L156.909 10.8182C157.971 9.95027 157.4 8.30358 156.006 8.19901L148.355 7.58511L145.361 0.90979C144.823 -0.303263 142.985 -0.303263 142.447 0.90979L139.452 7.57035L131.801 8.18362C130.407 8.28882 129.837 9.93488 130.898 10.8035L136.712 15.5633L134.969 22.628C134.653 23.9148 136.126 24.9329 137.33 24.2445L143.904 20.5027Z" fill="#5C6010"/>
<path d="M187.353 20.5027L193.928 24.2593C195.131 24.9483 196.605 23.9302 196.288 22.6434L194.545 15.578L200.358 10.8182C201.42 9.95027 200.85 8.30358 199.456 8.19901L191.805 7.58511L188.81 0.90979C188.272 -0.303263 186.434 -0.303263 185.896 0.90979L182.902 7.57036L175.25 8.18362C173.857 8.28882 173.286 9.93488 174.348 10.8035L180.162 15.5633L178.419 22.628C178.103 23.9148 179.575 24.9329 180.779 24.2445L187.353 20.5027Z" fill="#5C6010"/>
</svg>
