<svg width="201" height="25" viewBox="0 0 201 25" fill="none" xmlns="http://www.w3.org/2000/svg">
<path d="M13.5551 20.5027L20.1296 24.2593C21.3333 24.9483 22.8065 23.9302 22.4894 22.6434L20.7474 15.578L26.5601 10.8182C27.6219 9.95027 27.0516 8.30358 25.6579 8.19901L18.0067 7.58511L15.012 0.90979C14.4744 -0.303263 12.6359 -0.303263 12.0982 0.90979L9.10359 7.57035L1.45239 8.18362C0.0586145 8.28882 -0.511661 9.93488 0.549459 10.8035L6.36355 15.5633L4.62082 22.628C4.30445 23.9148 5.77698 24.9329 6.98135 24.2445L13.5551 20.5027Z" fill="#E0E0E0"/>
<path d="M57.0048 20.5027L63.5793 24.2593C64.783 24.9483 66.2562 23.9302 65.9391 22.6434L64.1971 15.578L70.0098 10.8182C71.0716 9.95027 70.5014 8.30358 69.1076 8.19901L61.4564 7.58511L58.4618 0.90979C57.9241 -0.303263 56.0856 -0.303263 55.5479 0.90979L52.5533 7.57035L44.9021 8.18362C43.5083 8.28882 42.938 9.93488 43.9992 10.8035L49.8133 15.5633L48.0705 22.628C47.7542 23.9148 49.2267 24.9329 50.4311 24.2445L57.0048 20.5027Z" fill="#E0E0E0"/>
<path d="M100.454 20.5027L107.029 24.2593C108.232 24.9483 109.706 23.9302 109.389 22.6434L107.647 15.578L113.459 10.8182C114.521 9.95027 113.951 8.30358 112.557 8.19901L104.906 7.58511L101.911 0.90979C101.374 -0.303263 99.5351 -0.303263 98.9974 0.90979L96.0028 7.57035L88.3516 8.18362C86.9578 8.28882 86.3875 9.93488 87.4486 10.8035L93.2627 15.5633L91.52 22.628C91.2036 23.9148 92.6762 24.9329 93.8805 24.2445L100.454 20.5027Z" fill="#E0E0E0"/>
<path d="M143.904 20.5027L150.478 24.2593C151.682 24.9483 153.155 23.9302 152.838 22.6434L151.096 15.578L156.909 10.8182C157.971 9.95027 157.4 8.30358 156.006 8.19901L148.355 7.58511L145.361 0.90979C144.823 -0.303263 142.985 -0.303263 142.447 0.90979L139.452 7.57035L131.801 8.18362C130.407 8.28882 129.837 9.93488 130.898 10.8035L136.712 15.5633L134.969 22.628C134.653 23.9148 136.126 24.9329 137.33 24.2445L143.904 20.5027Z" fill="#E0E0E0"/>
<path d="M187.353 20.5027L193.928 24.2593C195.132 24.9483 196.605 23.9302 196.288 22.6434L194.546 15.578L200.358 10.8182C201.42 9.95027 200.85 8.30358 199.456 8.19901L191.805 7.58511L188.81 0.90979C188.273 -0.303263 186.434 -0.303263 185.897 0.90979L182.902 7.57035L175.251 8.18362C173.857 8.28882 173.287 9.93488 174.348 10.8035L180.162 15.5633L178.419 22.628C178.103 23.9148 179.575 24.9329 180.78 24.2445L187.353 20.5027Z" fill="#E0E0E0"/>
<path d="M13.5551 20.5027L20.1296 24.2593C21.3333 24.9483 22.8065 23.9302 22.4894 22.6434L20.7474 15.578L26.5601 10.8182C27.6219 9.95027 27.0516 8.30358 25.6579 8.19901L18.0067 7.58511L15.012 0.90979C14.4744 -0.303263 12.6359 -0.303263 12.0982 0.90979L9.10359 7.57035L1.45239 8.18362C0.0586145 8.28882 -0.511661 9.93488 0.549459 10.8035L6.36355 15.5633L4.62082 22.628C4.30445 23.9148 5.77698 24.9329 6.98135 24.2445L13.5551 20.5027Z" fill="#5C6010"/>
<path d="M57.0048 20.5027L63.5793 24.2593C64.783 24.9483 66.2562 23.9302 65.9391 22.6434L64.1971 15.578L70.0098 10.8182C71.0716 9.95027 70.5014 8.30358 69.1076 8.19901L61.4564 7.58511L58.4618 0.90979C57.9241 -0.303263 56.0856 -0.303263 55.5479 0.90979L52.5533 7.57035L44.9021 8.18362C43.5083 8.28882 42.938 9.93488 43.9992 10.8035L49.8133 15.5633L48.0705 22.628C47.7542 23.9148 49.2267 24.9329 50.4311 24.2445L57.0048 20.5027Z" fill="#5C6010"/>
<path d="M100.454 20.5027L107.029 24.2593C108.232 24.9483 109.706 23.9302 109.389 22.6434L107.647 15.578L113.459 10.8182C114.521 9.95027 113.951 8.30358 112.557 8.19901L104.906 7.58511L101.911 0.90979C101.374 -0.303263 99.5351 -0.303263 98.9974 0.90979L96.0028 7.57035L88.3516 8.18362C86.9578 8.28882 86.3875 9.93488 87.4486 10.8035L93.2627 15.5633L91.52 22.628C91.2036 23.9148 92.6762 24.9329 93.8805 24.2445L100.454 20.5027Z" fill="#5C6010"/>
<path d="M143.903 0.5C144.335 0.5 144.728 0.716697 144.903 1.1123L144.904 1.11426L147.899 7.79004L148.021 8.05957L148.315 8.08398L155.967 8.69727H155.969C156.961 8.7717 157.267 9.87913 156.593 10.4307L156.592 10.4316L150.779 15.1914L150.535 15.3916L150.61 15.6973L152.353 22.7627C152.454 23.1761 152.278 23.5517 151.945 23.7803C151.611 24.0101 151.148 24.0664 150.727 23.8252L144.151 20.0684L143.904 19.9268L143.656 20.0684L137.083 23.8096L137.082 23.8105C136.66 24.0516 136.197 23.9945 135.862 23.7646C135.53 23.5361 135.354 23.1612 135.455 22.748L137.197 15.6826L137.273 15.376L137.029 15.1768L131.215 10.417C130.541 9.86503 130.846 8.75755 131.839 8.68262L131.841 8.68164L139.492 8.06836L139.787 8.04492L139.908 7.77539L142.903 1.11523L142.904 1.1123C143.08 0.716854 143.472 0.500147 143.903 0.5Z" fill="white" stroke="black"/>
<path d="M187.353 0.5C187.784 0.5 188.178 0.716697 188.353 1.1123L188.354 1.11426L191.349 7.79004L191.47 8.05957L191.765 8.08398L199.417 8.69727H199.418C200.411 8.7717 200.716 9.87913 200.042 10.4307L200.042 10.4316L194.229 15.1914L193.985 15.3916L194.06 15.6973L195.802 22.7627C195.904 23.1761 195.728 23.5517 195.395 23.7803C195.061 24.0101 194.598 24.0664 194.176 23.8252L187.601 20.0684L187.354 19.9268L187.106 20.0684L180.533 23.8096L180.532 23.8105C180.11 24.0516 179.646 23.9945 179.312 23.7646C178.98 23.5361 178.803 23.1612 178.905 22.748L180.647 15.6826L180.723 15.376L180.479 15.1768L174.665 10.417C173.99 9.86503 174.296 8.75755 175.289 8.68262L175.291 8.68164L182.942 8.06836L183.237 8.04492L183.358 7.77539L186.353 1.11523L186.354 1.1123C186.529 0.716854 186.922 0.500147 187.353 0.5Z" fill="white" stroke="black"/>
</svg>
