<svg width="150" height="200" viewBox="0 0 150 200" fill="none" xmlns="http://www.w3.org/2000/svg">
<g clip-path="url(#clip0_89_2002)">
<path d="M4.93363 0L147.531 1.6852V48.6628C147.531 48.6628 106.122 97.0482 150 153.865V200H0V152.462C0.192354 149.86 39.8641 110.498 4.93363 50.3533V0Z" fill="#828282"/>
<path d="M73.6302 48.9453H76.37C96.5724 48.9453 112.98 65.7706 112.98 86.4996V200.005H37.0205V86.4996C37.0205 65.776 53.4226 48.9453 73.6302 48.9453Z" fill="#C7C5CC"/>
<path d="M65.4004 131.083C70.7006 131.083 74.9973 126.675 74.9973 121.238C74.9973 115.801 70.7006 111.394 65.4004 111.394C60.1002 111.394 55.8035 115.801 55.8035 121.238C55.8035 126.675 60.1002 131.083 65.4004 131.083Z" fill="#A19DAE"/>
<path d="M91.2539 52.1826V200H112.98V78.7618C112.98 78.7618 111.212 59.9153 91.2539 52.1826Z" fill="#A19DAE"/>
<path d="M112.979 39.3836C119.265 39.3836 124.36 34.1571 124.36 27.7099C124.36 21.2626 119.265 16.0361 112.979 16.0361C106.694 16.0361 101.599 21.2626 101.599 27.7099C101.599 34.1571 106.694 39.3836 112.979 39.3836Z" fill="#1D1D1B"/>
<path d="M39.7602 37.9754C46.0453 37.9754 51.1403 32.7489 51.1403 26.3017C51.1403 19.8544 46.0453 14.6279 39.7602 14.6279C33.4752 14.6279 28.3801 19.8544 28.3801 26.3017C28.3801 32.7489 33.4752 37.9754 39.7602 37.9754Z" fill="#1D1D1B"/>
<path d="M119.109 44.4447C126.023 44.4447 131.628 42.5465 131.628 40.205C131.628 37.8635 126.023 35.9653 119.109 35.9653C112.195 35.9653 106.59 37.8635 106.59 40.205C106.59 42.5465 112.195 44.4447 119.109 44.4447Z" fill="#F0869F"/>
<path d="M32.0816 43.6234C38.9955 43.6234 44.6002 41.7252 44.6002 39.3837C44.6002 37.0422 38.9955 35.144 32.0816 35.144C25.1678 35.144 19.563 37.0422 19.563 39.3837C19.563 41.7252 25.1678 43.6234 32.0816 43.6234Z" fill="#F0869F"/>
<path d="M109.055 27.7098C110.418 27.7098 111.524 26.5757 111.524 25.1767C111.524 23.7777 110.418 22.6436 109.055 22.6436C107.691 22.6436 106.585 23.7777 106.585 25.1767C106.585 26.5757 107.691 27.7098 109.055 27.7098Z" fill="white"/>
<path d="M117.009 33.8958C118.522 33.8958 119.748 32.6375 119.748 31.0853C119.748 29.5332 118.522 28.2749 117.009 28.2749C115.495 28.2749 114.269 29.5332 114.269 31.0853C114.269 32.6375 115.495 33.8958 117.009 33.8958Z" fill="white"/>
<path d="M42.7807 26.3021C44.1445 26.3021 45.2501 25.168 45.2501 23.769C45.2501 22.37 44.1445 21.2358 42.7807 21.2358C41.4169 21.2358 40.3113 22.37 40.3113 23.769C40.3113 25.168 41.4169 26.3021 42.7807 26.3021Z" fill="white"/>
<path d="M34.8264 32.4881C36.3395 32.4881 37.5662 31.2298 37.5662 29.6776C37.5662 28.1255 36.3395 26.8672 34.8264 26.8672C33.3133 26.8672 32.0867 28.1255 32.0867 29.6776C32.0867 31.2298 33.3133 32.4881 34.8264 32.4881Z" fill="white"/>
<path d="M64.7974 37.6665C70.0897 41.2875 76.0319 43.2074 82.1716 40.7489C84.1576 40.029 86.1019 39.0051 88.0826 37.8798L88.2438 38.0665C86.8973 39.9543 85.1713 41.5862 83.1438 42.8288C77.9398 46.1992 70.724 45.6285 66.2842 41.1489C65.4212 40.3063 64.6674 39.3837 64.0903 38.2798L64.8026 37.6665H64.7974Z" fill="#1D1D1B"/>
</g>
<defs>
<clipPath id="clip0_89_2002">
<rect width="150" height="200" fill="white"/>
</clipPath>
</defs>
</svg>
