<svg width="328" height="359" viewBox="0 0 328 359" fill="none" xmlns="http://www.w3.org/2000/svg">
<g clip-path="url(#clip0_85_20)">
<path d="M232.48 17.2202H64.4C53.1334 17.2202 44 26.3536 44 37.6202V296.69C44 307.957 53.1334 317.09 64.4 317.09H232.48C243.747 317.09 252.88 307.957 252.88 296.69V37.6202C252.88 26.3536 243.747 17.2202 232.48 17.2202Z" fill="#F8F8F8" stroke="#9B9B9B" stroke-width="3" stroke-miterlimit="10"/>
<path d="M310.909 92.0173L167.413 4.49605C157.795 -1.3706 145.241 1.67101 139.375 11.2897L4.47403 232.466C-1.39262 242.085 1.64898 254.638 11.2677 260.505L154.763 348.026C164.382 353.893 176.935 350.851 182.802 341.232L317.702 120.056C323.569 110.437 320.528 97.8839 310.909 92.0173Z" fill="#F8F8F8" stroke="#9B9B9B" stroke-width="3" stroke-miterlimit="10"/>
<path d="M117.66 121.59C127.64 111.23 154.31 87.5698 162.37 111.41C163.28 114.45 163.78 117.53 163.91 120.66C163.74 121.67 163.62 122.69 163.66 123.71C163.58 133.69 162.98 143.68 162.58 153.62C161.83 182.19 157.87 232.8 201.83 218.7C169 229.97 161.79 204.48 160.42 177.51C159.57 161.57 160.43 145.59 160.42 129.67C160.31 126.72 160.67 123.69 160 120.81C159.82 116.26 159.41 111.08 156.93 107.43C148.6 95.7898 125.06 115.06 117.66 121.59Z" fill="black"/>
<path d="M149.07 86.6998C161.28 73.9498 190.73 51.0698 194.48 82.7398C194.69 84.2698 194.82 85.8098 194.51 87.3198L194.5 88.8198C194.46 98.7898 193.91 108.77 193.56 118.71C193.32 137.03 189.99 175.83 209.92 184.48C217.35 187.62 225.78 186.11 233.24 183.81C225.76 186.23 217.34 187.84 209.79 184.77C182.93 173.79 195.01 107.59 191.83 82.9898C190.02 53.5398 160.36 76.4098 149.07 86.6898V86.6998Z" fill="black"/>
<path d="M93.0701 154.7C101.01 146.38 117.07 130.92 129.55 134.12C136.63 136.14 139.19 144.12 140.08 150.58C140.32 152.16 140.52 153.72 140.25 155.29C140.19 157.8 140.1 160.34 139.98 162.84C139.64 192.83 123.83 269.22 177.23 251.81C151.35 260.3 140.69 246.97 137.15 222.56C134.28 202.79 135.2 182.65 134.8 162.78C134.67 159.84 134.82 156.86 134.31 153.97C134.26 149.6 133.91 144.44 131.69 141.01C124.01 129.7 100.22 148.59 93.0601 154.7H93.0701Z" fill="black"/>
</g>
<defs>
<clipPath id="clip0_85_20">
<rect width="328" height="359" fill="white"/>
</clipPath>
</defs>
</svg>
