<svg width="333" height="433" viewBox="0 0 333 433" fill="none" xmlns="http://www.w3.org/2000/svg">
<path d="M161.835 405.33C137.624 385.614 95.6899 340.618 121.646 318.364C154.092 290.545 123.812 230.864 96.1521 201.03C68.4926 171.196 109.1 158.383 90.3494 140.654" stroke="url(#paint0_linear_75_303)" stroke-opacity="0.61" stroke-width="12"/>
<g clip-path="url(#clip0_75_303)" filter="url(#filter0_g_75_303)">
<path d="M162.021 415.654L219.313 380.155L133.657 354.504L162.021 415.654Z" fill="#CCAE9A" stroke="#CCAE9A" stroke-miterlimit="10"/>
<path d="M165.782 413.393L218.128 380.967L200.915 374.285L165.782 413.393Z" fill="#9B8272" stroke="#9B8272" stroke-miterlimit="10"/>
<path d="M161.998 415.734L179.559 404.719L153.367 396.875L161.998 415.734Z" fill="black" stroke="black" stroke-miterlimit="10"/>
<path d="M224.506 46.9746L253.945 55.7906L163.337 358.361C161.027 366.073 152.56 370.356 144.434 367.922C136.307 365.489 131.588 357.257 133.897 349.545L224.506 46.9746Z" fill="#4583DD" stroke="#4583DD" stroke-miterlimit="10"/>
<path d="M253.931 55.7866L283.371 64.6026L192.762 367.173C190.452 374.885 181.986 379.168 173.859 376.734C165.733 374.301 161.013 366.069 163.323 358.357L253.931 55.7866Z" fill="#3173D3" stroke="#3173D3" stroke-miterlimit="10"/>
<path d="M283.371 64.6025L312.81 73.4185L222.201 375.989C219.892 383.701 211.425 387.984 203.298 385.55C195.172 383.117 190.453 374.885 192.762 367.173L283.371 64.6025Z" fill="#2A59A0" stroke="#2A59A0" stroke-miterlimit="10"/>
<path d="M248.084 15.2601L310.531 33.9607C317.667 36.098 321.808 43.32 319.78 50.0929L312.796 73.4144L224.506 46.9747L231.49 23.6532C233.518 16.8804 240.947 13.1229 248.084 15.2601Z" fill="#262626" stroke="#262626" stroke-miterlimit="10"/>
<path d="M294.041 29.0225L310.545 33.9648C317.681 36.102 321.822 43.324 319.794 50.0969L312.81 73.4184L305.98 71.373C307.115 68.902 311.617 58.3296 307.023 45.8257C303.548 36.3813 296.78 30.9817 294.041 29.0225Z" fill="#141414" stroke="#141414" stroke-miterlimit="10"/>
<path d="M228.701 48.9948L232.283 50.0676L141.515 346.983C139.203 354.55 135.595 360.158 133.452 359.502C131.305 358.859 131.554 351.842 133.865 344.274L223.625 47.4315L228.719 48.9857L228.701 48.9948Z" fill="#A1CCFF"/>
<path d="M264.587 20.2024L248.084 15.2601C240.947 13.1229 233.518 16.8804 231.49 23.6532L224.506 46.9747L231.81 49.162C233.296 44.8071 238.164 34.8918 248.896 27.3088C254.735 23.1765 260.552 21.1995 264.587 20.2024Z" fill="#939393" stroke="#939393" stroke-miterlimit="10"/>
<path d="M258.132 171.756C265.631 174.001 273.436 170.053 275.567 162.937C277.698 155.821 273.347 148.233 265.849 145.987C258.351 143.742 250.545 147.69 248.414 154.806C246.283 161.922 250.634 169.51 258.132 171.756Z" fill="black"/>
<path d="M220.581 160.51C228.079 162.756 235.885 158.807 238.016 151.692C240.147 144.576 235.796 136.987 228.297 134.741C220.799 132.496 212.993 136.444 210.862 143.56C208.731 150.676 213.082 158.265 220.581 160.51Z" fill="black"/>
<path d="M230.221 169.148C230.221 169.148 229.6 191.968 244.369 173.385L230.221 169.148Z" fill="black"/>
<path d="M263.406 179.101C268.833 180.726 273.804 180.136 274.508 177.784C275.213 175.431 271.384 172.207 265.957 170.582C260.53 168.956 255.559 169.546 254.854 171.898C254.15 174.251 257.978 177.475 263.406 179.101Z" fill="#CE8EAB"/>
<path d="M209.225 162.875C214.652 164.501 219.623 163.911 220.327 161.559C221.032 159.206 217.203 155.982 211.776 154.356C206.348 152.731 201.378 153.321 200.673 155.673C199.969 158.026 203.797 161.25 209.225 162.875Z" fill="#CE8EAB"/>
<path d="M257.645 158.522C259.539 159.089 261.51 158.091 262.049 156.294C262.587 154.497 261.488 152.58 259.594 152.013C257.7 151.446 255.729 152.443 255.191 154.24C254.652 156.038 255.751 157.954 257.645 158.522Z" fill="white"/>
<path d="M266.136 166.686C267.099 166.974 268.1 166.467 268.374 165.554C268.647 164.641 268.089 163.667 267.127 163.379C266.164 163.091 265.163 163.597 264.889 164.51C264.616 165.424 265.174 166.398 266.136 166.686Z" fill="white"/>
<path d="M228.594 149.677C230.488 150.244 232.459 149.247 232.998 147.45C233.536 145.653 232.437 143.736 230.543 143.169C228.649 142.602 226.678 143.599 226.14 145.396C225.601 147.193 226.7 149.11 228.594 149.677Z" fill="white"/>
<path d="M217.013 151.831C217.975 152.119 218.977 151.612 219.25 150.699C219.524 149.786 218.965 148.812 218.003 148.524C217.041 148.236 216.039 148.742 215.766 149.655C215.492 150.569 216.05 151.543 217.013 151.831Z" fill="white"/>
</g>
<defs>
<filter id="filter0_g_75_303" x="105.401" y="0" width="227.599" height="432.44" filterUnits="userSpaceOnUse" color-interpolation-filters="sRGB">
<feFlood flood-opacity="0" result="BackgroundImageFix"/>
<feBlend mode="normal" in="SourceGraphic" in2="BackgroundImageFix" result="shape"/>
<feTurbulence type="fractalNoise" baseFrequency="0.25 0.25" numOctaves="3" seed="9655" />
<feDisplacementMap in="shape" scale="0" xChannelSelector="R" yChannelSelector="G" result="displacedImage" width="100%" height="100%" />
<feMerge result="effect1_texture_75_303">
<feMergeNode in="displacedImage"/>
</feMerge>
</filter>
<linearGradient id="paint0_linear_75_303" x1="169.83" y1="237.032" x2="79.3361" y2="311.432" gradientUnits="userSpaceOnUse">
<stop stop-color="#666666" stop-opacity="0.33"/>
<stop offset="1"/>
</linearGradient>
<clipPath id="clip0_75_303">
<rect width="112.491" height="417.727" fill="white" transform="translate(225.237) rotate(16.671)"/>
</clipPath>
</defs>
</svg>
